<svg width="32" height="32" viewBox="0 0 32 32" fill="none" xmlns="http://www.w3.org/2000/svg">
<path d="M22.1579 12.6185C22.5009 12.6185 22.7886 12.5031 23.021 12.2722C23.2534 12.0414 23.3692 11.756 23.3684 11.4162V9.01156H25.7895C26.1325 9.01156 26.4202 8.89614 26.6526 8.6653C26.885 8.43445 27.0008 8.14911 27 7.80925C27 7.4686 26.8838 7.18285 26.6514 6.952C26.4189 6.72116 26.1316 6.60614 25.7895 6.60694H23.3684V4.20232C23.3684 3.86166 23.2522 3.57591 23.0198 3.34507C22.7874 3.11422 22.5001 2.9992 22.1579 3C21.8149 3 21.5272 3.11543 21.2948 3.34627C21.0624 3.57711 20.9466 3.86246 20.9474 4.20232V6.60694H18.5263C18.1833 6.60694 17.8956 6.72236 17.6632 6.95321C17.4308 7.18405 17.315 7.4694 17.3158 7.80925C17.3158 8.14991 17.432 8.43566 17.6644 8.6665C17.8968 8.89734 18.1841 9.01236 18.5263 9.01156H20.9474V11.4162C20.9474 11.7568 21.0636 12.0426 21.296 12.2734C21.5284 12.5043 21.8157 12.6193 22.1579 12.6185ZM13.6842 17.4277C14.35 17.4277 14.9202 17.1921 15.3947 16.7208C15.8692 16.2495 16.1061 15.6836 16.1053 15.0231C16.1053 14.3619 15.868 13.7956 15.3935 13.3243C14.9189 12.853 14.3492 12.6177 13.6842 12.6185C13.0184 12.6185 12.4483 12.8542 11.9737 13.3255C11.4992 13.7968 11.2623 14.3627 11.2632 15.0231C11.2632 15.6844 11.5004 16.2507 11.9749 16.722C12.4495 17.1933 13.0192 17.4285 13.6842 17.4277ZM13.6842 29C13.5228 29 13.3614 28.9699 13.2 28.9098C13.0386 28.8497 12.8974 28.7696 12.7763 28.6694C9.8307 26.0844 7.63158 23.6846 6.17895 21.4699C4.72632 19.2553 4 17.1865 4 15.2636C4 12.2578 4.97367 9.8632 6.921 8.07977C8.86833 6.29634 11.1227 5.40463 13.6842 5.40463C13.886 5.40463 14.0877 5.40984 14.2895 5.42026C14.4912 5.43068 14.693 5.44551 14.8947 5.46474V7.89942C14.693 7.85935 14.4961 7.8341 14.304 7.82368C14.1119 7.81326 13.9053 7.80845 13.6842 7.80925C11.6465 7.80925 9.92633 8.50579 8.52374 9.89887C7.12114 11.2919 6.42025 13.0802 6.42105 15.2636C6.42105 16.6863 7.01623 18.3147 8.20658 20.1486C9.39693 21.9825 11.2228 24.0212 13.6842 26.2647C16.1456 24.0204 17.9715 21.9813 19.1618 20.1474C20.3522 18.3134 20.9474 16.6855 20.9474 15.2636V15.0231H23.3684V15.2636C23.3684 17.1873 22.6421 19.2565 21.1895 21.4711C19.7368 23.6858 17.5377 26.0852 14.5921 28.6694C14.4711 28.7696 14.3298 28.8497 14.1684 28.9098C14.007 28.9699 13.8456 29 13.6842 29Z" fill="white"/>
</svg>
