<svg width="32" height="32" viewBox="0 0 32 32" fill="none" xmlns="http://www.w3.org/2000/svg">
<path d="M14.7834 17.4154H8.9729V26.7061H14.7834V17.4154Z" fill="white"/>
<path d="M9.57584 17.885C9.57584 17.8446 9.54307 17.8119 9.50264 17.8119C9.46222 17.8119 9.42944 17.8446 9.42944 17.885V19.3256C9.42944 19.366 9.46222 19.3987 9.50264 19.3987C9.54307 19.3987 9.57584 19.366 9.57584 19.3256V17.885Z" fill="white"/>
<path d="M9.97135 18.2225C9.97135 18.1821 9.93858 18.1494 9.89815 18.1494C9.85772 18.1494 9.82495 18.1821 9.82495 18.2225V19.6632C9.82495 19.7035 9.85772 19.7362 9.89815 19.7362C9.93858 19.7362 9.97135 19.7035 9.97135 19.6632V18.2225Z" fill="white"/>
<path d="M10.3666 18.5031C10.3666 18.4628 10.3338 18.4301 10.2934 18.4301C10.253 18.4301 10.2202 18.4628 10.2202 18.5031V19.9438C10.2202 19.9841 10.253 20.0169 10.2934 20.0169C10.3338 20.0169 10.3666 19.9841 10.3666 19.9438V18.5031Z" fill="white"/>
<path d="M11.3255 7.95662H14.3266L10.5125 13.5557L12.1669 9.16063H9.42944L11.3443 4.30774H13.4288L11.3255 7.95662Z" fill="white"/>
<path d="M15.0321 2H8.72406C6.66737 2 5 3.6644 5 5.71743V14.0362C5 16.0892 6.66737 17.7536 8.72406 17.7536H15.0321C17.0888 17.7536 18.7561 16.0892 18.7561 14.0362V5.71743C18.7561 3.6644 17.0888 2 15.0321 2ZM6.82737 15.7569C6.71012 15.7569 6.61555 15.6625 6.61555 15.5454C6.61555 15.4872 6.63952 15.4342 6.67774 15.3961C6.71596 15.3579 6.76907 15.334 6.82737 15.334H10.0131C10.1304 15.334 10.2256 15.4284 10.2256 15.5454C10.2256 15.6036 10.2016 15.6566 10.1634 15.6948C10.1245 15.7329 10.0714 15.7569 10.0131 15.7569H6.82737ZM10.4471 15.5454C10.4471 15.4872 10.4705 15.4342 10.5093 15.3961C10.5475 15.3579 10.6 15.334 10.659 15.334C10.7179 15.334 10.7704 15.3579 10.8086 15.3961C10.8475 15.4342 10.8708 15.4872 10.8708 15.5454C10.8708 15.6036 10.8475 15.6566 10.8086 15.6948C10.7704 15.7329 10.7179 15.7569 10.659 15.7569C10.5417 15.7569 10.4471 15.6625 10.4471 15.5454ZM11.0418 15.5454C11.0418 15.4872 11.0651 15.4342 11.104 15.3961C11.1422 15.3579 11.1947 15.334 11.2536 15.334C11.3126 15.334 11.365 15.3579 11.4033 15.3961C11.4421 15.4342 11.4654 15.4872 11.4654 15.5454C11.4654 15.6036 11.4421 15.6566 11.4033 15.6948C11.365 15.7329 11.3126 15.7569 11.2536 15.7569C11.1364 15.7569 11.0418 15.6625 11.0418 15.5454ZM11.685 15.5454C11.685 15.4872 11.709 15.4342 11.7472 15.3961C11.7854 15.3579 11.8386 15.334 11.8975 15.334C11.9565 15.334 12.0089 15.3579 12.0471 15.3961C12.086 15.4342 12.1093 15.4872 12.1093 15.5454C12.1093 15.6036 12.086 15.6566 12.0471 15.6948C12.0089 15.7329 11.9565 15.7569 11.8975 15.7569C11.7803 15.7569 11.685 15.6625 11.685 15.5454ZM17.0784 15.6948C17.0402 15.7329 16.9871 15.7569 16.9288 15.7569H12.5181C12.4008 15.7569 12.3063 15.6625 12.3063 15.5454C12.3063 15.4872 12.3296 15.4342 12.3684 15.3961C12.4067 15.3579 12.4591 15.334 12.5181 15.334H16.9288C17.0454 15.334 17.1406 15.4284 17.1406 15.5454C17.1406 15.6036 17.1166 15.6566 17.0784 15.6948ZM17.1406 13.4821C17.1406 13.9994 16.7208 14.4184 16.2033 14.4184H7.55288C7.03531 14.4184 6.61555 13.9994 6.61555 13.4821V4.38151C6.61555 3.86421 7.03531 3.4452 7.55288 3.4452H16.2033C16.7208 3.4452 17.1406 3.86421 17.1406 4.38151V13.4821Z" fill="white"/>
<path d="M10.5125 13.5557L12.1669 9.16063H9.42944L11.3443 4.30774H13.4288L11.3255 7.95662H14.3266L10.5125 13.5557Z" fill="white"/>
<path d="M10.5125 13.5557L12.1669 9.16063H9.42944L11.3443 4.30774H13.4288L11.3255 7.95662H14.3266L10.5125 13.5557Z" fill="white"/>
<path d="M7.69273 26.1552H16.0633C16.6579 26.1552 17.1405 26.6369 17.1405 27.2305V30H6.61548V27.2305C6.61548 26.6369 7.09807 26.1552 7.69273 26.1552Z" fill="white"/>
<path d="M21.8098 22.3951C20.3381 22.3951 19.8309 21.1684 19.768 20.5199L19.7661 20.483V17.6321C19.7661 16.5445 18.9058 16.2735 18.8074 16.2464L19.0069 15.4963C19.5381 15.6353 20.5428 16.2599 20.5428 17.6321V20.461C20.5648 20.6343 20.7371 21.6191 21.8092 21.6191C22.9758 21.6191 23.2019 20.5923 23.2349 20.3873V13.4995H24.0122V20.4423L24.009 20.4681C23.9112 21.184 23.3379 22.3951 21.8092 22.3951H21.8098Z" fill="white"/>
<path d="M21.6709 11.019H25.61V12.677C25.61 13.0081 25.3412 13.2764 25.0095 13.2764H22.272C21.9404 13.2764 21.6715 13.0081 21.6715 12.677V11.019H21.6709Z" fill="white"/>
<path d="M25.9766 10.0284H21.2718C21.1473 10.0284 21.0464 10.1292 21.0464 10.2535V10.6072C21.0464 10.7314 21.1473 10.8322 21.2718 10.8322H25.9766C26.1011 10.8322 26.202 10.7314 26.202 10.6072V10.2535C26.202 10.1292 26.1011 10.0284 25.9766 10.0284Z" fill="white"/>
<path d="M22.4935 7.35144H22.4747C22.337 7.35144 22.2253 7.4629 22.2253 7.60039V9.59004C22.2253 9.72753 22.337 9.83899 22.4747 9.83899H22.4935C22.6313 9.83899 22.7429 9.72753 22.7429 9.59004V7.60039C22.7429 7.4629 22.6313 7.35144 22.4935 7.35144Z" fill="white"/>
<path d="M24.806 7.35144H24.7872C24.6495 7.35144 24.5378 7.4629 24.5378 7.60039V9.59004C24.5378 9.72753 24.6495 9.83899 24.7872 9.83899H24.806C24.9438 9.83899 25.0554 9.72753 25.0554 9.59004V7.60039C25.0554 7.4629 24.9438 7.35144 24.806 7.35144Z" fill="white"/>
</svg>
