<svg width="32" height="32" viewBox="0 0 32 32" fill="none" xmlns="http://www.w3.org/2000/svg">
<path d="M15.628 17.2607H9.90967V26.4581H15.628V17.2607Z" fill="url(#paint0_linear_89_2205)"/>
<path d="M10.503 17.7261C10.503 17.6862 10.4707 17.6538 10.4309 17.6538C10.3911 17.6538 10.3589 17.6862 10.3589 17.7261V19.1524C10.3589 19.1923 10.3911 19.2247 10.4309 19.2247C10.4707 19.2247 10.503 19.1923 10.503 19.1524V17.7261Z" fill="url(#paint1_linear_89_2205)"/>
<path d="M10.8921 18.0603C10.8921 18.0203 10.8599 17.9879 10.8201 17.9879C10.7803 17.9879 10.748 18.0203 10.748 18.0603V19.4865C10.748 19.5264 10.7803 19.5588 10.8201 19.5588C10.8599 19.5588 10.8921 19.5264 10.8921 19.4865V18.0603Z" fill="url(#paint2_linear_89_2205)"/>
<path d="M11.2813 18.3375C11.2813 18.2975 11.249 18.2651 11.2093 18.2651C11.1695 18.2651 11.1372 18.2975 11.1372 18.3375V19.7637C11.1372 19.8036 11.1695 19.836 11.2093 19.836C11.249 19.836 11.2813 19.8036 11.2813 19.7637V18.3375Z" fill="url(#paint3_linear_89_2205)"/>
<path d="M15.8729 2H9.66496C7.64086 2 6 3.64764 6 5.68011V13.9147C6 15.9472 7.64086 17.5949 9.66496 17.5949H15.8729C17.897 17.5949 19.5378 15.9472 19.5378 13.9147V5.68011C19.5378 3.64764 17.897 2 15.8729 2Z" fill="url(#paint4_linear_89_2205)"/>
<path d="M17.0249 3.43066H8.51181C8.00235 3.43066 7.58936 3.84537 7.58936 4.35693V13.3674C7.58936 13.879 8.00235 14.2937 8.51181 14.2937H17.0249C17.5344 14.2937 17.9474 13.879 17.9474 13.3674V4.35693C17.9474 3.84537 17.5344 3.43066 17.0249 3.43066Z" fill="white"/>
<path d="M12.2433 4.28528L10.3589 9.08882H13.0529L11.4248 13.4398L15.1784 7.89689H12.2248L14.2948 4.28528H12.2433Z" fill="url(#paint5_linear_89_2205)"/>
<path d="M10.9337 15.2002H7.79782C7.68269 15.2002 7.58936 15.2939 7.58936 15.4095V15.4102C7.58936 15.5258 7.68269 15.6195 7.79782 15.6195H10.9337C11.0488 15.6195 11.1421 15.5258 11.1421 15.4102V15.4095C11.1421 15.2939 11.0488 15.2002 10.9337 15.2002Z" fill="white"/>
<path d="M17.7386 15.2002H13.3979C13.2828 15.2002 13.1895 15.2939 13.1895 15.4095V15.4102C13.1895 15.5258 13.2828 15.6195 13.3979 15.6195H17.7386C17.8538 15.6195 17.9471 15.5258 17.9471 15.4102V15.4095C17.9471 15.2939 17.8538 15.2002 17.7386 15.2002Z" fill="white"/>
<path d="M11.5695 15.2002H11.5688C11.4537 15.2002 11.3604 15.2939 11.3604 15.4095V15.4102C11.3604 15.5258 11.4537 15.6195 11.5688 15.6195H11.5695C11.6846 15.6195 11.7779 15.5258 11.7779 15.4102V15.4095C11.7779 15.2939 11.6846 15.2002 11.5695 15.2002Z" fill="white"/>
<path d="M12.1544 15.2002H12.1538C12.0386 15.2002 11.9453 15.2939 11.9453 15.4095V15.4102C11.9453 15.5258 12.0386 15.6195 12.1538 15.6195H12.1544C12.2695 15.6195 12.3629 15.5258 12.3629 15.4102V15.4095C12.3629 15.2939 12.2695 15.2002 12.1544 15.2002Z" fill="white"/>
<path d="M12.7877 15.2002H12.7871C12.6719 15.2002 12.5786 15.2939 12.5786 15.4095V15.4102C12.5786 15.5258 12.6719 15.6195 12.7871 15.6195H12.7877C12.9028 15.6195 12.9962 15.5258 12.9962 15.4102V15.4095C12.9962 15.2939 12.9028 15.2002 12.7877 15.2002Z" fill="white"/>
<path d="M8.64965 25.9127H16.8867C17.4719 25.9127 17.9469 26.3896 17.9469 26.9773V29.7189H7.58887V26.9773C7.58887 26.3896 8.06379 25.9127 8.64901 25.9127H8.64965Z" fill="url(#paint6_linear_89_2205)"/>
<path d="M19.6885 15.7327C19.6885 15.7327 20.9144 16.0547 20.9144 17.4751V20.2974C20.9144 20.2974 21.0591 21.8062 22.5432 21.8062C24.0273 21.8062 24.3007 20.4395 24.3288 20.2309V13.384" stroke="url(#paint7_linear_89_2205)" stroke-miterlimit="10"/>
<path d="M22.4067 10.9286H26.2834V12.5699C26.2834 12.8976 26.0188 13.1633 25.6924 13.1633H22.9983C22.6719 13.1633 22.4074 12.8976 22.4074 12.5699V10.9286H22.4067Z" fill="url(#paint8_linear_89_2205)"/>
<path d="M26.644 9.94849H22.0138C21.8913 9.94849 21.792 10.0482 21.792 10.1713V10.5214C21.792 10.6444 21.8913 10.7442 22.0138 10.7442H26.644C26.7665 10.7442 26.8658 10.6444 26.8658 10.5214V10.1713C26.8658 10.0482 26.7665 9.94849 26.644 9.94849Z" fill="url(#paint9_linear_89_2205)"/>
<path d="M23.2156 7.29773H23.1971C23.0615 7.29773 22.9517 7.40807 22.9517 7.54418V9.51386C22.9517 9.64997 23.0615 9.76031 23.1971 9.76031H23.2156C23.3511 9.76031 23.461 9.64997 23.461 9.51386V7.54418C23.461 7.40807 23.3511 7.29773 23.2156 7.29773Z" fill="url(#paint10_linear_89_2205)"/>
<path d="M25.4919 7.29773H25.4735C25.3379 7.29773 25.228 7.40807 25.228 7.54418V9.51386C25.228 9.64997 25.3379 9.76031 25.4735 9.76031H25.4919C25.6275 9.76031 25.7374 9.64997 25.7374 9.51386V7.54418C25.7374 7.40807 25.6275 7.29773 25.4919 7.29773Z" fill="url(#paint11_linear_89_2205)"/>
<defs>
<linearGradient id="paint0_linear_89_2205" x1="14.5092" y1="9.83587" x2="12.1474" y2="26.0175" gradientUnits="userSpaceOnUse">
<stop stop-color="#BAE515"/>
<stop offset="1" stop-color="#378F07"/>
</linearGradient>
<linearGradient id="paint1_linear_89_2205" x1="10.7038" y1="16.5547" x2="10.3336" y2="19.0905" gradientUnits="userSpaceOnUse">
<stop stop-color="#BAE515"/>
<stop offset="1" stop-color="#378F07"/>
</linearGradient>
<linearGradient id="paint2_linear_89_2205" x1="11.0923" y1="16.8888" x2="10.7221" y2="19.4246" gradientUnits="userSpaceOnUse">
<stop stop-color="#BAE515"/>
<stop offset="1" stop-color="#378F07"/>
</linearGradient>
<linearGradient id="paint3_linear_89_2205" x1="11.4821" y1="17.166" x2="11.1119" y2="19.7024" gradientUnits="userSpaceOnUse">
<stop stop-color="#BAE515"/>
<stop offset="1" stop-color="#378F07"/>
</linearGradient>
<linearGradient id="paint4_linear_89_2205" x1="27.0788" y1="0.267167" x2="7.25519" y2="13.3612" gradientUnits="userSpaceOnUse">
<stop stop-color="#BAE515"/>
<stop offset="1" stop-color="#378F07"/>
</linearGradient>
<linearGradient id="paint5_linear_89_2205" x1="10.3589" y1="8.86221" x2="15.1784" y2="8.86221" gradientUnits="userSpaceOnUse">
<stop stop-color="#BAE515"/>
<stop offset="1" stop-color="#378F07"/>
</linearGradient>
<linearGradient id="paint6_linear_89_2205" x1="13.726" y1="21.6949" x2="12.5075" y2="30.0414" gradientUnits="userSpaceOnUse">
<stop stop-color="#BAE515"/>
<stop offset="1" stop-color="#378F07"/>
</linearGradient>
<linearGradient id="paint7_linear_89_2205" x1="22.8275" y1="13.1273" x2="21.5409" y2="21.9443" gradientUnits="userSpaceOnUse">
<stop stop-color="#BAE515"/>
<stop offset="1" stop-color="#378F07"/>
</linearGradient>
<linearGradient id="paint8_linear_89_2205" x1="24.5041" y1="10.6687" x2="24.1153" y2="13.3331" gradientUnits="userSpaceOnUse">
<stop stop-color="#BAE515"/>
<stop offset="1" stop-color="#378F07"/>
</linearGradient>
<linearGradient id="paint9_linear_89_2205" x1="24.4331" y1="9.6233" x2="24.2223" y2="11.0685" gradientUnits="userSpaceOnUse">
<stop stop-color="#BAE515"/>
<stop offset="1" stop-color="#378F07"/>
</linearGradient>
<linearGradient id="paint10_linear_89_2205" x1="22.9517" y1="8.52934" x2="23.461" y2="8.52934" gradientUnits="userSpaceOnUse">
<stop stop-color="#BAE515"/>
<stop offset="1" stop-color="#378F07"/>
</linearGradient>
<linearGradient id="paint11_linear_89_2205" x1="25.228" y1="8.52934" x2="25.7374" y2="8.52934" gradientUnits="userSpaceOnUse">
<stop stop-color="#BAE515"/>
<stop offset="1" stop-color="#378F07"/>
</linearGradient>
</defs>
</svg>
