<svg width="32" height="32" viewBox="0 0 32 32" fill="none" xmlns="http://www.w3.org/2000/svg">
<path d="M27.4058 28.5079V16.8321L23.4371 19.3287V16.8321L19.4451 19.3473V16.8321L15.4441 19.3473L14.8408 10.6276H12.6388L12.0492 19.4147L11.4329 10.6276H9.20412L8.60151 19.3L7.99204 10.6276H5.77013C5.77013 10.6276 5.16683 18.649 5.16683 19.1466V28.4692L4 28.5079V30H28.5V28.5079H27.4058ZM8.95526 26.9025C8.95526 27.0265 8.85174 27.1272 8.72422 27.1272H6.89582C6.76831 27.1272 6.66479 27.0265 6.66479 26.9025V25.1236C6.66479 24.9995 6.76831 24.8988 6.89582 24.8988H8.72422C8.85174 24.8988 8.95526 24.9995 8.95526 25.1236V26.9025ZM8.95526 23.7522C8.95526 23.8763 8.85174 23.977 8.72422 23.977H6.89582C6.76831 23.977 6.66479 23.8763 6.66479 23.7522V21.9733C6.66479 21.8493 6.76831 21.7485 6.89582 21.7485H8.72422C8.85174 21.7485 8.95526 21.8493 8.95526 21.9733V23.7522ZM12.3241 26.9025C12.3241 27.0265 12.2206 27.1272 12.0931 27.1272H10.2647C10.1372 27.1272 10.0336 27.0265 10.0336 26.9025V25.1236C10.0336 24.9995 10.1372 24.8988 10.2647 24.8988H12.0931C12.2206 24.8988 12.3241 24.9995 12.3241 25.1236V26.9025ZM12.3241 23.7522C12.3241 23.8763 12.2206 23.977 12.0931 23.977H10.2647C10.1372 23.977 10.0336 23.8763 10.0336 23.7522V21.9733C10.0336 21.8493 10.1372 21.7485 10.2647 21.7485H12.0931C12.2206 21.7485 12.3241 21.8493 12.3241 21.9733V23.7522ZM15.693 26.9025C15.693 27.0265 15.5895 27.1272 15.4619 27.1272H13.6335C13.506 27.1272 13.4025 27.0265 13.4025 26.9025V25.1236C13.4025 24.9995 13.506 24.8988 13.6335 24.8988H15.4619C15.5895 24.8988 15.693 24.9995 15.693 25.1236V26.9025ZM15.693 23.7522C15.693 23.8763 15.5895 23.977 15.4619 23.977H13.6335C13.506 23.977 13.4025 23.8763 13.4025 23.7522V21.9733C13.4025 21.8493 13.506 21.7485 13.6335 21.7485H15.4619C15.5895 21.7485 15.693 21.8493 15.693 21.9733V23.7522ZM19.0618 26.9025C19.0618 27.0265 18.9583 27.1272 18.8308 27.1272H17.0024C16.8749 27.1272 16.7714 27.0265 16.7714 26.9025V25.1236C16.7714 24.9995 16.8749 24.8988 17.0024 24.8988H18.8308C18.9583 24.8988 19.0618 24.9995 19.0618 25.1236V26.9025ZM19.0618 23.7522C19.0618 23.8763 18.9583 23.977 18.8308 23.977H17.0024C16.8749 23.977 16.7714 23.8763 16.7714 23.7522V21.9733C16.7714 21.8493 16.8749 21.7485 17.0024 21.7485H18.8308C18.9583 21.7485 19.0618 21.8493 19.0618 21.9733V23.7522ZM22.4307 26.9025C22.4307 27.0265 22.3272 27.1272 22.1997 27.1272H20.3713C20.2438 27.1272 20.1402 27.0265 20.1402 26.9025V25.1236C20.1402 24.9995 20.2438 24.8988 20.3713 24.8988H22.1997C22.3272 24.8988 22.4307 24.9995 22.4307 25.1236V26.9025ZM22.4307 23.7522C22.4307 23.8763 22.3272 23.977 22.1997 23.977H20.3713C20.2438 23.977 20.1402 23.8763 20.1402 23.7522V21.9733C20.1402 21.8493 20.2438 21.7485 20.3713 21.7485H22.1997C22.3272 21.7485 22.4307 21.8493 22.4307 21.9733V23.7522ZM25.7996 26.9025C25.7996 27.0265 25.696 27.1272 25.5685 27.1272H23.7401C23.6126 27.1272 23.5091 27.0265 23.5091 26.9025V25.1236C23.5091 24.9995 23.6126 24.8988 23.7401 24.8988H25.5685C25.696 24.8988 25.7996 24.9995 25.7996 25.1236V26.9025ZM25.7996 23.7522C25.7996 23.8763 25.696 23.977 25.5685 23.977H23.7401C23.6126 23.977 23.5091 23.8763 23.5091 23.7522V21.9733C23.5091 21.8493 23.6126 21.7485 23.7401 21.7485H25.5685C25.696 21.7485 25.7996 21.8493 25.7996 21.9733V23.7522Z" fill="white"/>
<path d="M6.38782 10.0073C6.38782 10.0073 6.39742 9.83992 6.52082 9.18959C6.64422 8.53927 7.16799 8.13774 7.16799 8.13774C6.53247 9.23428 6.63736 10.1974 6.63736 10.1974C6.88005 9.66183 8.08596 9.71252 8.22376 8.39253C8.36156 7.07254 7.59441 6.39686 7.59441 6.39686C6.96506 6.69635 5.79206 7.7362 5.67415 8.7307C5.55623 9.7252 6.38782 10.0073 6.38782 10.0073Z" fill="white"/>
<path d="M11.0072 9.12956C11.1155 8.34851 10.591 7.7362 10.591 7.7362C10.591 7.7362 9.76217 8.27514 9.69635 9.02084C9.63054 9.76655 10.0926 9.87861 10.0926 9.87861C10.0926 9.87861 10.3613 9.39103 10.4039 8.82008C10.4039 8.82008 10.5149 9.27297 10.2496 9.83058C10.2496 9.83058 10.8988 9.91129 11.0072 9.12956Z" fill="white"/>
<path d="M15.0547 7.0632C15.0547 7.0632 13.8022 7.67817 13.6281 8.53927C13.4539 9.40037 13.8625 9.65116 14.0819 9.82058C14.0819 9.82058 14.1649 8.66133 14.7099 8.25646C14.7099 8.25646 14.2972 8.7387 14.2595 9.87994C14.2595 9.87994 14.884 9.62248 15.2206 9.30965C15.5572 8.99683 15.5874 8.34184 15.368 7.6755C15.1486 7.00917 15.054 7.06453 15.054 7.06453L15.0547 7.0632Z" fill="white"/>
<path d="M19.491 3.94964C19.491 3.94964 18.5717 4.38586 17.7531 6.01267C17.7531 6.01267 18.8287 6.03535 19.5253 5.79656C20.2218 5.55711 20.7045 4.62865 20.8327 3.5261C20.9615 2.42355 20.7874 2.44356 20.7874 2.44356C20.7874 2.44356 18.5641 2.53894 17.736 3.67484C16.9078 4.81074 17.3308 5.43172 17.5351 5.81524C17.5351 5.81524 18.4318 4.18976 19.491 3.94964Z" fill="white"/>
<path d="M14.6036 4.66667C14.6036 4.66667 14.3424 5.2583 13.7707 5.47107C13.7707 5.47107 14.195 5.90195 14.7208 5.43638C15.2474 4.97082 15.3104 4.02768 15.3104 4.02768C15.3104 4.02768 14.3232 3.95831 13.8817 4.49792C13.4402 5.03685 13.6246 5.36568 13.6246 5.36568C13.6246 5.36568 14.2176 5.1976 14.6036 4.66667Z" fill="white"/>
<path d="M10.8824 3.87294C10.8824 3.87294 10.6541 4.66467 9.92533 5.25696C9.92533 5.25696 11.3849 5.80457 12.0609 4.23178C12.4935 3.22528 12.2631 2 12.2631 2C12.2631 2 10.2695 2.17542 9.77108 3.24729C9.27199 4.31916 9.50645 4.90545 9.5942 5.11156C9.5942 5.11156 10.3634 4.77872 10.8824 3.87294Z" fill="white"/>
</svg>
