<svg width="32" height="32" viewBox="0 0 32 32" fill="none" xmlns="http://www.w3.org/2000/svg">
<path d="M4.56186 28.508V30H28.3003V28.508H27.2395V16.8321L23.3941 19.3287V16.8321L19.5269 19.348V16.8321L15.6496 19.348L15.0651 10.6277H12.9315L12.3602 19.4147L11.7631 10.6277H9.60356L9.01902 19.3L8.4285 10.6277H6.27564C6.27564 10.6277 5.69109 18.6497 5.69109 19.1473V28.4699L4.56055 28.508H4.56186Z" fill="url(#paint0_linear_89_2246)"/>
<path d="M9.13898 21.7485H7.3674C7.24377 21.7485 7.14355 21.8492 7.14355 21.9733V23.7522C7.14355 23.8763 7.24377 23.977 7.3674 23.977H9.13898C9.26261 23.977 9.36282 23.8763 9.36282 23.7522V21.9733C9.36282 21.8492 9.26261 21.7485 9.13898 21.7485Z" fill="white"/>
<path d="M12.4031 21.7485H10.6316C10.5079 21.7485 10.4077 21.8492 10.4077 21.9733V23.7522C10.4077 23.8763 10.5079 23.977 10.6316 23.977H12.4031C12.5268 23.977 12.627 23.8763 12.627 23.7522V21.9733C12.627 21.8492 12.5268 21.7485 12.4031 21.7485Z" fill="white"/>
<path d="M15.6678 21.7485H13.8962C13.7726 21.7485 13.6724 21.8492 13.6724 21.9733V23.7522C13.6724 23.8763 13.7726 23.977 13.8962 23.977H15.6678C15.7914 23.977 15.8916 23.8763 15.8916 23.7522V21.9733C15.8916 21.8492 15.7914 21.7485 15.6678 21.7485Z" fill="white"/>
<path d="M18.9315 21.7485H17.1599C17.0363 21.7485 16.936 21.8492 16.936 21.9733V23.7522C16.936 23.8763 17.0363 23.977 17.1599 23.977H18.9315C19.0551 23.977 19.1553 23.8763 19.1553 23.7522V21.9733C19.1553 21.8492 19.0551 21.7485 18.9315 21.7485Z" fill="white"/>
<path d="M22.1956 21.7485H20.424C20.3004 21.7485 20.2002 21.8492 20.2002 21.9733V23.7522C20.2002 23.8763 20.3004 23.977 20.424 23.977H22.1956C22.3192 23.977 22.4195 23.8763 22.4195 23.7522V21.9733C22.4195 21.8492 22.3192 21.7485 22.1956 21.7485Z" fill="white"/>
<path d="M25.4603 21.7485H23.6887C23.5651 21.7485 23.4648 21.8492 23.4648 21.9733V23.7522C23.4648 23.8763 23.5651 23.977 23.6887 23.977H25.4603C25.5839 23.977 25.6841 23.8763 25.6841 23.7522V21.9733C25.6841 21.8492 25.5839 21.7485 25.4603 21.7485Z" fill="white"/>
<path d="M9.13898 24.8988H7.3674C7.24377 24.8988 7.14355 24.9994 7.14355 25.1236V26.9025C7.14355 27.0266 7.24377 27.1273 7.3674 27.1273H9.13898C9.26261 27.1273 9.36282 27.0266 9.36282 26.9025V25.1236C9.36282 24.9994 9.26261 24.8988 9.13898 24.8988Z" fill="white"/>
<path d="M12.4031 24.8988H10.6316C10.5079 24.8988 10.4077 24.9994 10.4077 25.1236V26.9025C10.4077 27.0266 10.5079 27.1273 10.6316 27.1273H12.4031C12.5268 27.1273 12.627 27.0266 12.627 26.9025V25.1236C12.627 24.9994 12.5268 24.8988 12.4031 24.8988Z" fill="white"/>
<path d="M15.6678 24.8988H13.8962C13.7726 24.8988 13.6724 24.9994 13.6724 25.1236V26.9025C13.6724 27.0266 13.7726 27.1273 13.8962 27.1273H15.6678C15.7914 27.1273 15.8916 27.0266 15.8916 26.9025V25.1236C15.8916 24.9994 15.7914 24.8988 15.6678 24.8988Z" fill="white"/>
<path d="M18.9315 24.8988H17.1599C17.0363 24.8988 16.936 24.9994 16.936 25.1236V26.9025C16.936 27.0266 17.0363 27.1273 17.1599 27.1273H18.9315C19.0551 27.1273 19.1553 27.0266 19.1553 26.9025V25.1236C19.1553 24.9994 19.0551 24.8988 18.9315 24.8988Z" fill="white"/>
<path d="M22.1956 24.8988H20.424C20.3004 24.8988 20.2002 24.9994 20.2002 25.1236V26.9025C20.2002 27.0266 20.3004 27.1273 20.424 27.1273H22.1956C22.3192 27.1273 22.4195 27.0266 22.4195 26.9025V25.1236C22.4195 24.9994 22.3192 24.8988 22.1956 24.8988Z" fill="white"/>
<path d="M25.4603 24.8988H23.6887C23.5651 24.8988 23.4648 24.9994 23.4648 25.1236V26.9025C23.4648 27.0266 23.5651 27.1273 23.6887 27.1273H25.4603C25.5839 27.1273 25.6841 27.0266 25.6841 26.9025V25.1236C25.6841 24.9994 25.5839 24.8988 25.4603 24.8988Z" fill="white"/>
<path d="M6.8756 10.0073C6.8756 10.0073 6.0692 9.72518 6.18345 8.73068C6.2977 7.73619 7.43424 6.69633 8.04403 6.39685C8.04403 6.39685 8.78732 7.07252 8.65381 8.39252C8.52029 9.71251 7.35188 9.66182 7.11673 10.1974C7.11673 10.1974 7.0151 9.23427 7.63086 8.13772C7.63086 8.13772 7.1227 8.53926 7.0038 9.18958C6.88489 9.83991 6.87493 10.0073 6.87493 10.0073H6.8756Z" fill="url(#paint1_linear_89_2246)"/>
<path d="M10.9478 7.73614C10.9478 7.73614 10.1447 8.27508 10.0809 9.02078C10.0172 9.76716 10.4649 9.87855 10.4649 9.87855C10.4649 9.87855 10.7253 9.39097 10.7664 8.82002C10.7664 8.82002 10.8747 9.27291 10.617 9.83052C10.617 9.83052 11.2454 9.91056 11.3503 9.12884C11.4553 8.34711 10.9471 7.73547 10.9471 7.73547L10.9478 7.73614Z" fill="url(#paint2_linear_89_2246)"/>
<path d="M15.2727 7.06323C15.2727 7.06323 14.0591 7.67821 13.8904 8.5393C13.7217 9.4004 14.1176 9.65119 14.3301 9.82061C14.3301 9.82061 14.4105 8.66137 14.9386 8.2565C14.9386 8.2565 14.5387 8.73874 14.5022 9.87997C14.5022 9.87997 15.1073 9.62251 15.4334 9.30969C15.7596 8.99687 15.7888 8.34187 15.5763 7.67554C15.3637 7.0092 15.272 7.06457 15.272 7.06457L15.2727 7.06323Z" fill="url(#paint3_linear_89_2246)"/>
<path d="M20.8277 2.44287C20.8277 2.44287 18.6735 2.53825 17.8711 3.67415C17.0687 4.81005 17.4786 5.43103 17.6765 5.81456C17.6765 5.81456 18.5453 4.18974 19.5716 3.94962C19.5716 3.94962 18.6808 4.38584 17.8877 6.01266C17.8877 6.01266 18.9299 6.03533 19.6048 5.79655C20.2797 5.55709 20.7473 4.62863 20.8716 3.52608C20.9964 2.42353 20.8277 2.44354 20.8277 2.44354V2.44287Z" fill="url(#paint4_linear_89_2246)"/>
<path d="M15.5205 4.02768C15.5205 4.02768 14.564 3.95831 14.1362 4.49792C13.7084 5.03685 13.8871 5.36568 13.8871 5.36568C13.8871 5.36568 14.4617 5.1976 14.8357 4.66667C14.8357 4.66667 14.5826 5.2583 14.0286 5.47107C14.0286 5.47107 14.4398 5.90195 14.9493 5.43639C15.4594 4.97082 15.5205 4.02768 15.5205 4.02768Z" fill="url(#paint5_linear_89_2246)"/>
<path d="M12.5685 2C12.5685 2 10.6368 2.17542 10.1539 3.24729C9.67033 4.31916 9.8975 4.90545 9.98253 5.11156C9.98253 5.11156 10.7285 4.77872 11.2313 3.87294C11.2313 3.87294 11.0101 4.66467 10.304 5.25696C10.304 5.25696 11.7182 5.80457 12.3732 4.23178C12.7923 3.22528 12.5691 2 12.5691 2H12.5685Z" fill="url(#paint6_linear_89_2246)"/>
<defs>
<linearGradient id="paint0_linear_89_2246" x1="27.8174" y1="-3.18589" x2="11.6272" y2="32.6521" gradientUnits="userSpaceOnUse">
<stop stop-color="#BAE515"/>
<stop offset="1" stop-color="#378F07"/>
</linearGradient>
<linearGradient id="paint1_linear_89_2246" x1="19.1809" y1="-7.37937" x2="-0.201809" y2="18.6378" gradientUnits="userSpaceOnUse">
<stop stop-color="#BAE515"/>
<stop offset="1" stop-color="#378F07"/>
</linearGradient>
<linearGradient id="paint2_linear_89_2246" x1="22.0236" y1="-6.27887" x2="2.64095" y2="19.7384" gradientUnits="userSpaceOnUse">
<stop stop-color="#BAE515"/>
<stop offset="1" stop-color="#378F07"/>
</linearGradient>
<linearGradient id="paint3_linear_89_2246" x1="21.7498" y1="-0.763348" x2="6.83132" y2="19.2611" gradientUnits="userSpaceOnUse">
<stop stop-color="#BAE515"/>
<stop offset="1" stop-color="#378F07"/>
</linearGradient>
<linearGradient id="paint4_linear_89_2246" x1="35.2736" y1="-4.64184" x2="0.714459" y2="14.5829" gradientUnits="userSpaceOnUse">
<stop stop-color="#BAE515"/>
<stop offset="1" stop-color="#378F07"/>
</linearGradient>
<linearGradient id="paint5_linear_89_2246" x1="26.5986" y1="1.24025" x2="-4.38514" y2="10.6076" gradientUnits="userSpaceOnUse">
<stop stop-color="#BAE515"/>
<stop offset="1" stop-color="#378F07"/>
</linearGradient>
<linearGradient id="paint6_linear_89_2246" x1="25.1251" y1="-3.91087" x2="-3.21253" y2="11.7749" gradientUnits="userSpaceOnUse">
<stop stop-color="#BAE515"/>
<stop offset="1" stop-color="#378F07"/>
</linearGradient>
</defs>
</svg>
