<svg width="32" height="32" viewBox="0 0 32 32" fill="none" xmlns="http://www.w3.org/2000/svg">
<path d="M24.4001 7.61339C24.2767 7.48978 24.1302 7.39172 23.9689 7.32481C23.8076 7.2579 23.6347 7.22346 23.4601 7.22346C23.2854 7.22346 23.1125 7.2579 22.9512 7.32481C22.7899 7.39172 22.6434 7.48978 22.5201 7.61339L16.0001 14.1201L9.48005 7.60005C9.35661 7.47661 9.21006 7.37869 9.04878 7.31188C8.88749 7.24508 8.71463 7.21069 8.54005 7.21069C8.36548 7.21069 8.19261 7.24508 8.03133 7.31188C7.87004 7.37869 7.7235 7.47661 7.60005 7.60005C7.47661 7.7235 7.37869 7.87004 7.31188 8.03133C7.24508 8.19261 7.21069 8.36548 7.21069 8.54005C7.21069 8.71463 7.24508 8.88749 7.31188 9.04878C7.37869 9.21006 7.47661 9.35661 7.60005 9.48005L14.1201 16.0001L7.60005 22.5201C7.47661 22.6435 7.37869 22.79 7.31188 22.9513C7.24508 23.1126 7.21069 23.2855 7.21069 23.4601C7.21069 23.6346 7.24508 23.8075 7.31188 23.9688C7.37869 24.1301 7.47661 24.2766 7.60005 24.4001C7.7235 24.5235 7.87004 24.6214 8.03133 24.6882C8.19261 24.755 8.36548 24.7894 8.54005 24.7894C8.71463 24.7894 8.88749 24.755 9.04878 24.6882C9.21006 24.6214 9.35661 24.5235 9.48005 24.4001L16.0001 17.8801L22.5201 24.4001C22.6435 24.5235 22.79 24.6214 22.9513 24.6882C23.1126 24.755 23.2855 24.7894 23.4601 24.7894C23.6346 24.7894 23.8075 24.755 23.9688 24.6882C24.1301 24.6214 24.2766 24.5235 24.4001 24.4001C24.5235 24.2766 24.6214 24.1301 24.6882 23.9688C24.755 23.8075 24.7894 23.6346 24.7894 23.4601C24.7894 23.2855 24.755 23.1126 24.6882 22.9513C24.6214 22.79 24.5235 22.6435 24.4001 22.5201L17.8801 16.0001L24.4001 9.48005C24.9067 8.97339 24.9067 8.12005 24.4001 7.61339Z" fill="white"/>
</svg>
