<svg width="19" height="18" viewBox="0 0 19 18" fill="none" xmlns="http://www.w3.org/2000/svg">
<path d="M11.045 6.765L11.735 7.455L4.94 14.25H4.25V13.56L11.045 6.765ZM13.745 2.25C13.5575 2.25 13.3625 2.325 13.22 2.4675L11.8475 3.84L14.66 6.6525L16.0325 5.28C16.102 5.21061 16.1572 5.1282 16.1948 5.03747C16.2325 4.94674 16.2518 4.84948 16.2518 4.75125C16.2518 4.65302 16.2325 4.55576 16.1948 4.46503C16.1572 4.3743 16.102 4.29189 16.0325 4.2225L14.2775 2.4675C14.1275 2.3175 13.94 2.25 13.745 2.25ZM11.045 4.6425L2.75 12.9375V15.75H5.5625L13.8575 7.455L11.045 4.6425Z" fill="white"/>
</svg>
