<svg width="9" height="14" viewBox="0 0 9 14" fill="none" xmlns="http://www.w3.org/2000/svg">
<path d="M0.846373 13.417C0.615457 13.1951 0.5 12.9126 0.5 12.5695C0.5 12.2265 0.615457 11.9439 0.846373 11.722L5.75857 7L0.846373 2.27803C0.615457 2.05605 0.5 1.77354 0.5 1.43049C0.5 1.08744 0.615457 0.804932 0.846373 0.582959C1.07729 0.360986 1.37118 0.25 1.72805 0.25C2.08492 0.25 2.37881 0.360986 2.60973 0.582959L8.40361 6.15247C8.52956 6.27354 8.61899 6.40471 8.67189 6.54596C8.72479 6.68722 8.75082 6.83856 8.74998 7C8.74998 7.16143 8.72353 7.31278 8.67063 7.45404C8.61773 7.59529 8.52872 7.72646 8.40361 7.84753L2.60973 13.417C2.37881 13.639 2.08492 13.75 1.72805 13.75C1.37118 13.75 1.07729 13.639 0.846373 13.417Z" fill="#525252"/>
</svg>
