<svg width="27" height="27" viewBox="0 0 27 27" fill="none" xmlns="http://www.w3.org/2000/svg">
<path d="M1.33333 0H2.66667V2.66667H0V1.33333C0 0.6 0.6 0 1.33333 0ZM22.6667 0C23.4 0 24 0.6 24 1.33333V2.66667H21.3333V0H22.6667ZM16 2.66667V0H18.6667V2.66667H16ZM10.6667 2.66667V0H13.3333V2.66667H10.6667ZM5.33333 2.66667V0H8V2.66667H5.33333ZM10.6667 24V21.3333H13.3333V24H10.6667ZM5.33333 24V21.3333H8V24H5.33333ZM1.33333 24C0.6 24 0 23.4 0 22.6667V21.3333H2.66667V24H1.33333ZM0 16H2.66667V18.6667H0V16ZM0 10.6667H2.66667V13.3333H0V10.6667ZM0 5.33333H2.66667V8H0V5.33333ZM24 5.33333V8H21.3333V5.33333H24ZM22 13.3333C24.5333 13.3333 26.6667 15.4667 26.6667 18C26.6667 21.4667 22 26.6667 22 26.6667C22 26.6667 17.3333 21.4667 17.3333 18C17.3333 15.4667 19.4667 13.3333 22 13.3333ZM22 19.7333C22.9333 19.7333 23.7333 18.9333 23.6 18.1333C23.6 17.3333 22.8 16.5333 22 16.5333C21.2 16.5333 20.4 17.2 20.4 18.1333C20.4 18.9333 21.0667 19.7333 22 19.7333Z" fill="#09A507"/>
</svg>
