<svg width="20" height="19" viewBox="0 0 20 19" fill="none" xmlns="http://www.w3.org/2000/svg">
<path d="M16.2045 5.9V4.1H14.4318V2.3H16.2045V0.5H17.9773V2.3H19.75V4.1H17.9773V5.9H16.2045ZM2.02273 18.5C1.53523 18.5 1.11775 18.3236 0.770297 17.9708C0.422842 17.618 0.249411 17.1944 0.250002 16.7V5.9C0.250002 5.405 0.423729 4.9811 0.771183 4.6283C1.11864 4.2755 1.53582 4.0994 2.02273 4.1H4.81477L6.45455 2.3H11.7727V4.1H7.23011L5.6125 5.9H2.02273V16.7H16.2045V8.6H17.9773V16.7C17.9773 17.195 17.8035 17.6189 17.4561 17.9717C17.1086 18.3245 16.6915 18.5006 16.2045 18.5H2.02273ZM9.11364 15.35C10.2216 15.35 11.1635 14.9561 11.9394 14.1683C12.7152 13.3805 13.1029 12.4244 13.1023 11.3C13.1023 10.175 12.7143 9.2186 11.9385 8.4308C11.1626 7.643 10.221 7.2494 9.11364 7.25C8.00568 7.25 7.06377 7.6439 6.28791 8.4317C5.51205 9.2195 5.12441 10.1756 5.125 11.3C5.125 12.425 5.51293 13.3814 6.2888 14.1692C7.06466 14.957 8.00627 15.3506 9.11364 15.35ZM9.11364 13.55C8.49318 13.55 7.96875 13.3325 7.54034 12.8975C7.11193 12.4625 6.89773 11.93 6.89773 11.3C6.89773 10.67 7.11193 10.1375 7.54034 9.7025C7.96875 9.2675 8.49318 9.05 9.11364 9.05C9.73409 9.05 10.2585 9.2675 10.6869 9.7025C11.1153 10.1375 11.3295 10.67 11.3295 11.3C11.3295 11.93 11.1153 12.4625 10.6869 12.8975C10.2585 13.3325 9.73409 13.55 9.11364 13.55Z" fill="#09A507"/>
</svg>
