<svg width="28" height="28" viewBox="0 0 28 28" fill="none" xmlns="http://www.w3.org/2000/svg">
<path d="M17.36 3.36C17.36 5.21568 15.8557 6.72 14 6.72C12.1443 6.72 10.64 5.21568 10.64 3.36C10.64 1.50432 12.1443 0 14 0C15.8557 0 17.36 1.50432 17.36 3.36Z" fill="#09A507"/>
<path d="M17.36 14C17.36 15.8557 15.8557 17.36 14 17.36C12.1443 17.36 10.64 15.8557 10.64 14C10.64 12.1443 12.1443 10.64 14 10.64C15.8557 10.64 17.36 12.1443 17.36 14Z" fill="#09A507"/>
<path d="M28 14C28 15.8557 26.4957 17.36 24.64 17.36C22.7843 17.36 21.28 15.8557 21.28 14C21.28 12.1443 22.7843 10.64 24.64 10.64C26.4957 10.64 28 12.1443 28 14Z" fill="#09A507"/>
<path d="M6.72 14C6.72 15.8557 5.21568 17.36 3.36 17.36C1.50432 17.36 0 15.8557 0 14C0 12.1443 1.50432 10.64 3.36 10.64C5.21568 10.64 6.72 12.1443 6.72 14Z" fill="#09A507"/>
<path d="M17.36 24.64C17.36 26.4957 15.8557 28 14 28C12.1443 28 10.64 26.4957 10.64 24.64C10.64 22.7843 12.1443 21.28 14 21.28C15.8557 21.28 17.36 22.7843 17.36 24.64Z" fill="#09A507"/>
</svg>
