<svg width="28" height="28" viewBox="0 0 28 28" fill="none" xmlns="http://www.w3.org/2000/svg">
<path d="M8.95082 27.3348L7.04918 23.984L3.44262 23.1634C3.11475 23.095 2.85246 22.9181 2.65574 22.6328C2.45902 22.3474 2.38251 22.0342 2.42623 21.6932L2.78689 17.8295L0.327869 14.889C0.10929 14.6382 0 14.3419 0 14C0 13.6581 0.10929 13.3618 0.327869 13.111L2.78689 10.1705L2.42623 6.30684C2.38251 5.96492 2.45902 5.65127 2.65574 5.36588C2.85246 5.08049 3.11475 4.90407 3.44262 4.83659L7.04918 4.01599L8.95082 0.665191C9.12568 0.368862 9.36612 0.169182 9.67213 0.0661508C9.97814 -0.0368805 10.2842 -0.0195567 10.5902 0.118122L14 1.62256L17.4098 0.118122C17.7158 -0.0186449 18.0219 -0.0359688 18.3279 0.0661508C18.6339 0.16827 18.8743 0.367951 19.0492 0.665191L20.9508 4.01599L24.5574 4.83659C24.8852 4.90498 25.1475 5.08186 25.3443 5.36725C25.541 5.65264 25.6175 5.96583 25.5738 6.30684L25.2131 10.1705L27.6721 13.111C27.8907 13.3618 28 13.6581 28 14C28 14.3419 27.8907 14.6382 27.6721 14.889L25.2131 17.8295L25.5738 21.6932C25.6175 22.0351 25.541 22.3487 25.3443 22.6341C25.1475 22.9195 24.8852 23.0959 24.5574 23.1634L20.9508 23.984L19.0492 27.3348C18.8743 27.6311 18.6339 27.8308 18.3279 27.9339C18.0219 28.0369 17.7158 28.0196 17.4098 27.8819L14 26.3774L10.5902 27.8819C10.2842 28.0186 9.97814 28.036 9.67213 27.9339C9.36612 27.8317 9.12568 27.632 8.95082 27.3348ZM12.623 14.9574L10.7213 13.0084C10.4809 12.7577 10.1801 12.6323 9.81902 12.6323C9.45792 12.6323 9.14667 12.7691 8.88525 13.0426C8.64481 13.2934 8.52459 13.6125 8.52459 14C8.52459 14.3875 8.64481 14.7066 8.88525 14.9574L11.7049 17.8979C11.9672 18.1714 12.2732 18.3082 12.623 18.3082C12.9727 18.3082 13.2787 18.1714 13.541 17.8979L19.1148 12.0853C19.3771 11.8117 19.5025 11.4926 19.4911 11.1279C19.4798 10.7632 19.3543 10.4441 19.1148 10.1705C18.8525 9.89698 18.5408 9.75474 18.1797 9.7438C17.8186 9.73286 17.5073 9.8637 17.2459 10.1363L12.623 14.9574Z" fill="#09A507"/>
</svg>
