<svg width="30" height="11" viewBox="0 0 30 11" fill="none" xmlns="http://www.w3.org/2000/svg">
<path d="M13.0182 7.33333C12.5689 7.33333 12.1921 7.216 11.8877 6.98133C11.5832 6.74667 11.4315 6.45659 11.4326 6.11111V1.22223C11.4326 0.87593 11.5848 0.585448 11.8892 0.350782C12.1937 0.116115 12.57 -0.000810585 13.0182 4.22915e-06H17.7749C18.2242 4.22915e-06 18.601 0.117338 18.9055 0.352004C19.2099 0.586671 19.3616 0.876745 19.3605 1.22223V6.11111C19.3605 6.45741 19.2083 6.74789 18.9039 6.98256C18.5994 7.21722 18.2231 7.33415 17.7749 7.33333H13.0182ZM13.811 5.5H16.9821V1.83334H13.811V5.5ZM1.91909 7.33333C1.46984 7.33333 1.093 7.216 0.788564 6.98133C0.484132 6.74667 0.332445 6.45659 0.333502 6.11111V1.22223C0.333502 0.87593 0.485718 0.585448 0.79015 0.350782C1.09458 0.116115 1.47089 -0.000810585 1.91909 4.22915e-06H6.67584C7.12509 4.22915e-06 7.50193 0.117338 7.80636 0.352004C8.1108 0.586671 8.26248 0.876745 8.26143 1.22223V2.44445H5.88305V1.83334H2.71188V5.5H5.88305V4.88889H8.26143V6.11111C8.26143 6.45741 8.10921 6.74789 7.80478 6.98256C7.50035 7.21722 7.12403 7.33415 6.67584 7.33333H1.91909ZM22.5317 11V7.94445C22.5317 7.59815 22.6839 7.30767 22.9883 7.073C23.2928 6.83833 23.6691 6.72141 24.1173 6.72222H27.2884V5.5H22.5317V3.66667H28.0812C28.5305 3.66667 28.9073 3.784 29.2118 4.01867C29.5162 4.25334 29.6679 4.54341 29.6668 4.88889V6.72222C29.6668 7.06852 29.5146 7.359 29.2102 7.59367C28.9057 7.82833 28.5294 7.94526 28.0812 7.94445H24.9101V9.16667H29.6668V11H22.5317Z" fill="#09A507"/>
</svg>
