<svg width="28" height="20" viewBox="0 0 28 20" fill="none" xmlns="http://www.w3.org/2000/svg">
<path d="M0 3.5C0 1.568 1.568 0 3.5 0H24.5C26.432 0 28 1.568 28 3.5V16.5C28 17.4283 27.6313 18.3185 26.9749 18.9749C26.3185 19.6313 25.4283 20 24.5 20H3.5C2.57174 20 1.6815 19.6313 1.02513 18.9749C0.368749 18.3185 0 17.4283 0 16.5V3.5ZM3.5 2C3.10218 2 2.72064 2.15804 2.43934 2.43934C2.15804 2.72064 2 3.10218 2 3.5V16.5C2 17.328 2.672 18 3.5 18H24.5C24.8978 18 25.2794 17.842 25.5607 17.5607C25.842 17.2794 26 16.8978 26 16.5V3.5C26 3.10218 25.842 2.72064 25.5607 2.43934C25.2794 2.15804 24.8978 2 24.5 2H3.5ZM17 6C16.7348 6 16.4804 6.10536 16.2929 6.29289C16.1054 6.48043 16 6.73478 16 7C16 7.26522 16.1054 7.51957 16.2929 7.70711C16.4804 7.89464 16.7348 8 17 8H23C23.2652 8 23.5196 7.89464 23.7071 7.70711C23.8946 7.51957 24 7.26522 24 7C24 6.73478 23.8946 6.48043 23.7071 6.29289C23.5196 6.10536 23.2652 6 23 6H17ZM17 12C16.7348 12 16.4804 12.1054 16.2929 12.2929C16.1054 12.4804 16 12.7348 16 13C16 13.2652 16.1054 13.5196 16.2929 13.7071C16.4804 13.8946 16.7348 14 17 14H23C23.2652 14 23.5196 13.8946 23.7071 13.7071C23.8946 13.5196 24 13.2652 24 13C24 12.7348 23.8946 12.4804 23.7071 12.2929C23.5196 12.1054 23.2652 12 23 12H17ZM8.522 9.428C8.87841 9.428 9.23133 9.3578 9.5606 9.22141C9.88988 9.08502 10.1891 8.88511 10.4411 8.63309C10.6931 8.38107 10.893 8.08188 11.0294 7.7526C11.1658 7.42333 11.236 7.07041 11.236 6.714C11.236 6.35759 11.1658 6.00467 11.0294 5.6754C10.893 5.34612 10.6931 5.04693 10.4411 4.79491C10.1891 4.54289 9.88988 4.34298 9.5606 4.20659C9.23133 4.0702 8.87841 4 8.522 4C7.8022 4 7.11189 4.28594 6.60291 4.79491C6.09394 5.30389 5.808 5.9942 5.808 6.714C5.808 7.4338 6.09394 8.12411 6.60291 8.63309C7.11189 9.14206 7.8022 9.428 8.522 9.428ZM5.716 10.784C5.26089 10.784 4.82442 10.9648 4.5026 11.2866C4.18079 11.6084 4 12.0449 4 12.5C4.00007 13.2448 4.24909 13.9683 4.70751 14.5553C5.16592 15.1424 5.8074 15.5594 6.53 15.74L6.636 15.768C7.876 16.078 9.17 16.078 10.408 15.768L10.516 15.742C11.2386 15.5614 11.8801 15.1444 12.3385 14.5573C12.7969 13.9703 13.0459 13.2468 13.046 12.502C13.0463 12.2765 13.0021 12.0531 12.916 11.8447C12.8298 11.6363 12.7035 11.4469 12.5441 11.2873C12.3847 11.1278 12.1955 11.0012 11.9871 10.9148C11.7788 10.8285 11.5555 10.784 11.33 10.784H5.716Z" fill="#09A507"/>
</svg>
