<svg width="32" height="32" viewBox="0 0 32 32" fill="none" xmlns="http://www.w3.org/2000/svg">
<path d="M16 14.6667C16.7333 14.6667 17.3613 14.4053 17.884 13.8827C18.4058 13.3609 18.6667 12.7333 18.6667 12C18.6667 11.2667 18.4058 10.6387 17.884 10.116C17.3613 9.59422 16.7333 9.33333 16 9.33333C15.2667 9.33333 14.6391 9.59422 14.1173 10.116C13.5947 10.6387 13.3333 11.2667 13.3333 12C13.3333 12.7333 13.5947 13.3609 14.1173 13.8827C14.6391 14.4053 15.2667 14.6667 16 14.6667ZM16 17.3333C14.5333 17.3333 13.2778 16.8111 12.2333 15.7667C11.1889 14.7222 10.6667 13.4667 10.6667 12C10.6667 10.5333 11.1889 9.27778 12.2333 8.23333C13.2778 7.18889 14.5333 6.66667 16 6.66667C17.4667 6.66667 18.7222 7.18889 19.7667 8.23333C20.8111 9.27778 21.3333 10.5333 21.3333 12C21.3333 13.4667 20.8111 14.7222 19.7667 15.7667C18.7222 16.8111 17.4667 17.3333 16 17.3333ZM16 32C13.8 32 11.728 31.5831 9.784 30.7493C7.83911 29.9164 6.13911 28.7724 4.684 27.3173C3.228 25.8613 2.08356 24.1613 1.25067 22.2173C0.416889 20.2724 0 18.2 0 16C0 13.8 0.416889 11.7276 1.25067 9.78267C2.08356 7.83867 3.228 6.13867 4.684 4.68267C6.13911 3.22756 7.83911 2.08356 9.784 1.25067C11.728 0.416889 13.8 0 16 0C18.2 0 20.2724 0.416889 22.2173 1.25067C24.1613 2.08356 25.8613 3.22756 27.3173 4.68267C28.7724 6.13867 29.9164 7.83867 30.7493 9.78267C31.5831 11.7276 32 13.8 32 16C32 18.2 31.5831 20.2724 30.7493 22.2173C29.9164 24.1613 28.7724 25.8613 27.3173 27.3173C25.8613 28.7724 24.1613 29.9164 22.2173 30.7493C20.2724 31.5831 18.2 32 16 32ZM16 29.3333C17.6 29.3333 19.1 29.0778 20.5 28.5667C21.9 28.0556 23.1778 27.3333 24.3333 26.4C23.6 25.5778 22.5222 24.8613 21.1 24.2507C19.6778 23.6391 17.9778 23.3333 16 23.3333C14.0222 23.3333 12.3222 23.6391 10.9 24.2507C9.47778 24.8613 8.4 25.5778 7.66667 26.4C8.82222 27.3333 10.1 28.0556 11.5 28.5667C12.9 29.0778 14.4 29.3333 16 29.3333ZM5.73333 24.5333C6.8 23.3778 8.23333 22.4444 10.0333 21.7333C11.8333 21.0222 13.8222 20.6667 16 20.6667C18.1778 20.6667 20.1613 21.0222 21.9507 21.7333C23.7391 22.4444 25.1667 23.3778 26.2333 24.5333C27.2111 23.3556 27.9724 22.0444 28.5173 20.6C29.0613 19.1556 29.3333 17.6222 29.3333 16C29.3333 14.1556 28.9831 12.428 28.2827 10.8173C27.5831 9.20578 26.6276 7.79467 25.416 6.584C24.2053 5.37245 22.7942 4.41644 21.1827 3.716C19.572 3.01644 17.8444 2.66667 16 2.66667C14.1778 2.66667 12.4556 3.01644 10.8333 3.716C9.21111 4.41644 7.79467 5.37245 6.584 6.584C5.37245 7.79467 4.41689 9.20578 3.71733 10.8173C3.01689 12.428 2.66667 14.1556 2.66667 16C2.66667 17.6222 2.93333 19.1613 3.46667 20.6173C4 22.0724 4.75556 23.3778 5.73333 24.5333Z" fill="#09A507"/>
</svg>
