<svg width="32" height="32" viewBox="0 0 32 32" fill="none" xmlns="http://www.w3.org/2000/svg">
<path d="M15.9998 5.33366C18.5732 5.33366 22.6665 7.20033 22.6665 12.2003C22.6665 15.0803 20.3732 18.427 15.9998 21.9603C11.6265 18.427 9.33317 15.067 9.33317 12.2003C9.33317 7.20033 13.4265 5.33366 15.9998 5.33366ZM15.9998 2.66699C11.6398 2.66699 6.6665 5.94699 6.6665 12.2003C6.6665 16.3603 9.77317 20.747 15.9998 25.3337C22.2265 20.747 25.3332 16.3603 25.3332 12.2003C25.3332 5.94699 20.3598 2.66699 15.9998 2.66699Z" fill="#09A507"/>
<path d="M15.9998 9.33301C14.5332 9.33301 13.3332 10.533 13.3332 11.9997C13.3332 13.4663 14.5332 14.6663 15.9998 14.6663C16.7071 14.6663 17.3854 14.3854 17.8855 13.8853C18.3856 13.3852 18.6665 12.7069 18.6665 11.9997C18.6665 11.2924 18.3856 10.6142 17.8855 10.1141C17.3854 9.61396 16.7071 9.33301 15.9998 9.33301ZM6.6665 26.6663H25.3332V29.333H6.6665V26.6663Z" fill="#09A507"/>
</svg>
