<svg width="28" height="28" viewBox="0 0 28 28" fill="none" xmlns="http://www.w3.org/2000/svg">
<path d="M4.38942 2.51793H11.8307V4.99951H4.38942V2.51793ZM0.66877 7.48108H6.86986V9.96265H0.66877V7.48108ZM3.14921 22.3705H9.35029V24.8521H3.14921V22.3705ZM16.4567 11.9603C17.3869 12.2457 18.069 12.9281 18.4039 13.7719L23.6996 4.94988C24.0498 4.36513 24.1771 3.67356 24.0582 3.00237C23.9394 2.33117 23.5822 1.72549 23.0526 1.29673C22.5229 0.867965 21.8563 0.644953 21.1754 0.668712C20.4944 0.692471 19.845 0.961403 19.3464 1.42604L15.0925 5.40897C14.5964 5.86806 14.3112 6.52567 14.3112 7.20811V12.0844C14.7576 11.8983 15.5266 11.6749 16.4567 11.9603ZM12.5873 14.02C12.7857 13.3748 13.1826 12.8289 13.6911 12.4442H3.49647C2.81458 12.4434 2.15537 12.6892 1.64038 13.1363C1.12539 13.5835 0.789336 14.2018 0.694172 14.8773C0.599007 15.5529 0.75115 16.24 1.12255 16.8122C1.49395 17.3843 2.05957 17.8028 2.71513 17.9905L8.30851 19.5912C8.96583 19.7773 9.67275 19.6904 10.2681 19.3306L13.6042 17.3329C13.1227 16.946 12.7683 16.4234 12.587 15.8328C12.4057 15.2421 12.4058 14.6106 12.5873 14.02ZM26.9738 21.8866L24.1461 16.7994C23.9789 16.5048 23.7545 16.2465 23.4861 16.0398C23.2178 15.8332 22.9109 15.6822 22.5834 15.5958L18.6395 14.6032C18.6767 15.0002 18.6395 15.4221 18.5155 15.8316C18.3255 16.4692 17.9338 17.028 17.3994 17.424C16.8649 17.82 16.2165 18.0319 15.5514 18.0278C14.7948 18.0278 14.3236 17.7548 14.3112 17.7548V24.8521C12.9469 24.8521 11.8307 25.9688 11.8307 27.3337H19.272C19.272 25.9688 18.1558 24.8521 16.7916 24.8521V19.5415L22.509 25.2615C23.6128 26.3658 25.3987 26.3658 26.5025 25.2615C27.3955 24.3682 27.5939 22.9909 26.9738 21.8866Z" fill="#09A507"/>
<path d="M15.0057 16.7001C15.9855 16.9979 17.0272 16.452 17.3249 15.4593C17.6225 14.4791 17.0769 13.4369 16.0847 13.1391C15.1049 12.8413 14.0631 13.3872 13.7655 14.3799C13.4678 15.3601 14.0259 16.4023 15.0057 16.7001Z" fill="#09A507"/>
</svg>
