<svg width="24" height="24" viewBox="0 0 24 24" fill="none" xmlns="http://www.w3.org/2000/svg">
<rect x="6" y="7.5" width="10.5" height="9" fill="white"/>
<path d="M8.21312 22.0011L6.78689 19.488L4.08197 18.8726C3.83607 18.8213 3.63934 18.6886 3.4918 18.4746C3.34426 18.2605 3.28689 18.0256 3.31967 17.7699L3.59016 14.8721L1.7459 12.6667C1.58197 12.4787 1.5 12.2564 1.5 12C1.5 11.7436 1.58197 11.5213 1.7459 11.3333L3.59016 9.12789L3.31967 6.23013C3.28689 5.97369 3.34426 5.73845 3.4918 5.52441C3.63934 5.31037 3.83607 5.17805 4.08197 5.12744L6.78689 4.51199L8.21312 1.99889C8.34426 1.77665 8.52459 1.62689 8.7541 1.54961C8.98361 1.47234 9.21312 1.48533 9.44262 1.58859L12 2.71692L14.5574 1.58859C14.7869 1.48602 15.0164 1.47302 15.2459 1.54961C15.4754 1.6262 15.6557 1.77596 15.7869 1.99889L17.2131 4.51199L19.918 5.12744C20.1639 5.17873 20.3607 5.3114 20.5082 5.52544C20.6557 5.73948 20.7131 5.97438 20.6803 6.23013L20.4098 9.12789L22.2541 11.3333C22.418 11.5213 22.5 11.7436 22.5 12C22.5 12.2564 22.418 12.4787 22.2541 12.6667L20.4098 14.8721L20.6803 17.7699C20.7131 18.0263 20.6557 18.2615 20.5082 18.4756C20.3607 18.6896 20.1639 18.822 19.918 18.8726L17.2131 19.488L15.7869 22.0011C15.6557 22.2234 15.4754 22.3731 15.2459 22.4504C15.0164 22.5277 14.7869 22.5147 14.5574 22.4114L12 21.2831L9.44262 22.4114C9.21312 22.514 8.98361 22.527 8.7541 22.4504C8.52459 22.3738 8.34426 22.224 8.21312 22.0011ZM10.9672 12.718L9.54099 11.2563C9.36066 11.0683 9.13508 10.9742 8.86426 10.9742C8.59344 10.9742 8.36 11.0768 8.16394 11.282C7.98361 11.47 7.89344 11.7094 7.89344 12C7.89344 12.2906 7.98361 12.53 8.16394 12.718L10.2787 14.9234C10.4754 15.1286 10.7049 15.2311 10.9672 15.2311C11.2295 15.2311 11.459 15.1286 11.6557 14.9234L15.8361 10.5639C16.0328 10.3588 16.1269 10.1194 16.1184 9.84591C16.1098 9.57238 16.0157 9.33304 15.8361 9.12789C15.6393 8.92274 15.4056 8.81606 15.1348 8.80785C14.8639 8.79964 14.6305 8.89778 14.4344 9.10224L10.9672 12.718Z" fill="url(#paint0_linear_89_6337)"/>
<defs>
<linearGradient id="paint0_linear_89_6337" x1="4.5" y1="2.71813e-07" x2="24" y2="25.5" gradientUnits="userSpaceOnUse">
<stop stop-color="#0DB6FF"/>
<stop offset="1" stop-color="#004382"/>
</linearGradient>
</defs>
</svg>
