<svg width="32" height="32" viewBox="0 0 32 32" fill="none" xmlns="http://www.w3.org/2000/svg">
<path d="M14.5135 18C14.1766 18 13.8939 17.904 13.6656 17.712C13.4373 17.52 13.3235 17.2827 13.3243 17V13C13.3243 12.7167 13.4385 12.479 13.6668 12.287C13.8951 12.095 14.1774 11.9993 14.5135 12H18.0811C18.418 12 18.7006 12.096 18.929 12.288C19.1573 12.48 19.2711 12.7173 19.2703 13V17C19.2703 17.2833 19.1561 17.521 18.9278 17.713C18.6995 17.905 18.4172 18.0007 18.0811 18H14.5135ZM15.1081 16.5H17.4865V13.5H15.1081V16.5ZM6.18919 18C5.85226 18 5.56963 17.904 5.3413 17.712C5.11298 17.52 4.99921 17.2827 5 17V13C5 12.7167 5.11417 12.479 5.34249 12.287C5.57081 12.095 5.85305 11.9993 6.18919 12H9.75676C10.0937 12 10.3763 12.096 10.6047 12.288C10.833 12.48 10.9467 12.7173 10.9459 13V14H9.16216V13.5H6.78379V16.5H9.16216V16H10.9459V17C10.9459 17.2833 10.8318 17.521 10.6035 17.713C10.3751 17.905 10.0929 18.0007 9.75676 18H6.18919ZM21.6486 21V18.5C21.6486 18.2167 21.7628 17.979 21.9911 17.787C22.2195 17.595 22.5017 17.4993 22.8378 17.5H25.2162V16.5H21.6486V15H25.8108C26.1477 15 26.4304 15.096 26.6587 15.288C26.887 15.48 27.0008 15.7173 27 16V17.5C27 17.7833 26.8858 18.021 26.6575 18.213C26.4292 18.405 26.147 18.5007 25.8108 18.5H23.4324V19.5H27V21H21.6486Z" fill="#09A507"/>
<rect x="0.5" y="0.5" width="31" height="31" rx="15.5" stroke="#09A507"/>
</svg>
