<svg width="28" height="28" viewBox="0 0 28 28" fill="none" xmlns="http://www.w3.org/2000/svg">
<path d="M23.3332 3.33366H20.6665V2.00033C20.6665 1.6467 20.526 1.30756 20.276 1.05752C20.0259 0.807468 19.6868 0.666992 19.3332 0.666992C18.9796 0.666992 18.6404 0.807468 18.3904 1.05752C18.1403 1.30756 17.9998 1.6467 17.9998 2.00033V3.33366H9.99984V2.00033C9.99984 1.6467 9.85936 1.30756 9.60931 1.05752C9.35927 0.807468 9.02013 0.666992 8.6665 0.666992C8.31288 0.666992 7.97374 0.807468 7.7237 1.05752C7.47365 1.30756 7.33317 1.6467 7.33317 2.00033V3.33366H4.6665C3.60564 3.33366 2.58822 3.75509 1.83808 4.50523C1.08793 5.25538 0.666504 6.27279 0.666504 7.33366V23.3337C0.666504 24.3945 1.08793 25.4119 1.83808 26.1621C2.58822 26.9122 3.60564 27.3337 4.6665 27.3337H23.3332C24.394 27.3337 25.4115 26.9122 26.1616 26.1621C26.9117 25.4119 27.3332 24.3945 27.3332 23.3337V7.33366C27.3332 6.27279 26.9117 5.25538 26.1616 4.50523C25.4115 3.75509 24.394 3.33366 23.3332 3.33366ZM24.6665 23.3337C24.6665 23.6873 24.526 24.0264 24.276 24.2765C24.0259 24.5265 23.6868 24.667 23.3332 24.667H4.6665C4.31288 24.667 3.97374 24.5265 3.7237 24.2765C3.47365 24.0264 3.33317 23.6873 3.33317 23.3337V14.0003H24.6665V23.3337ZM24.6665 11.3337H3.33317V7.33366C3.33317 6.98004 3.47365 6.6409 3.7237 6.39085C3.97374 6.1408 4.31288 6.00033 4.6665 6.00033H7.33317V7.33366C7.33317 7.68728 7.47365 8.02642 7.7237 8.27647C7.97374 8.52652 8.31288 8.66699 8.6665 8.66699C9.02013 8.66699 9.35927 8.52652 9.60931 8.27647C9.85936 8.02642 9.99984 7.68728 9.99984 7.33366V6.00033H17.9998V7.33366C17.9998 7.68728 18.1403 8.02642 18.3904 8.27647C18.6404 8.52652 18.9796 8.66699 19.3332 8.66699C19.6868 8.66699 20.0259 8.52652 20.276 8.27647C20.526 8.02642 20.6665 7.68728 20.6665 7.33366V6.00033H23.3332C23.6868 6.00033 24.0259 6.1408 24.276 6.39085C24.526 6.6409 24.6665 6.98004 24.6665 7.33366V11.3337Z" fill="#09A507"/>
</svg>
