<svg width="27" height="26" viewBox="0 0 27 26" fill="none" xmlns="http://www.w3.org/2000/svg">
<path d="M13 0H12.9563C9.49375 0.0125 6.24375 1.36875 3.79375 3.81875C1.35 6.275 0 9.53125 0 13C0 16.4688 1.35 19.725 3.8 22.1812C6.24375 24.6313 9.5 25.9875 12.9625 26H13.0063C20.175 26 26.0063 20.1688 26.0063 13C26.0063 5.83125 20.1688 0 13 0ZM24.2625 12.125H19.4125C19.3563 10.4563 19.15 8.8625 18.8 7.3625C19.8687 7.01875 20.9062 6.58125 21.9062 6.05C23.2812 7.8125 24.0938 9.9 24.2625 12.125ZM12.125 12.125H8.2625C8.3125 10.5938 8.5 9.14375 8.8125 7.80625C9.9 8.05 11.0063 8.2 12.125 8.25V12.125ZM12.125 13.875V17.7437C11.0125 17.7937 9.9 17.9438 8.8125 18.1875C8.5 16.85 8.3125 15.4 8.2625 13.875H12.125ZM13.875 13.875H17.7062C17.6562 15.4 17.4688 16.85 17.1562 18.1812C16.0812 17.9375 14.9812 17.7937 13.875 17.7437V13.875ZM13.875 12.125V8.25C14.9875 8.2 16.0875 8.05 17.1562 7.8125C17.4688 9.15 17.6562 10.5938 17.7062 12.125H13.875ZM20.7125 4.75625C19.9438 5.1375 19.15 5.4625 18.3375 5.725C17.8937 4.3875 17.3312 3.23125 16.6812 2.31875C18.1812 2.8375 19.55 3.66875 20.7125 4.75625ZM16.6875 6.175C15.7688 6.375 14.825 6.5 13.875 6.55V1.9625C14.9375 2.5375 15.975 4.08125 16.6875 6.175ZM12.125 1.9375V6.54375C11.1625 6.49375 10.2125 6.36875 9.28125 6.1625C10.0063 4.05 11.0562 2.50625 12.125 1.9375ZM9.275 2.3375C8.63125 3.24375 8.075 4.39375 7.63125 5.71875C6.83125 5.45625 6.04375 5.13125 5.2875 4.75625C6.4375 3.675 7.79375 2.85 9.275 2.3375ZM4.09375 6.05625C5.08125 6.58125 6.1125 7.01875 7.16875 7.35625C6.8125 8.85 6.60625 10.45 6.55625 12.1187H1.74375C1.90625 9.90625 2.71875 7.81875 4.09375 6.05625ZM1.7375 13.875H6.55C6.60625 15.5437 6.8125 17.1438 7.1625 18.6375C6.10625 18.9813 5.075 19.4188 4.0875 19.9375C2.71875 18.1812 1.90625 16.0938 1.7375 13.875ZM5.28125 21.2437C6.0375 20.8687 6.825 20.5438 7.63125 20.2812C8.075 21.6125 8.63125 22.7563 9.275 23.6688C7.79375 23.1438 6.4375 22.325 5.28125 21.2437ZM9.28125 19.8312C10.2125 19.625 11.1687 19.5 12.125 19.45V24.0625C11.05 23.4937 10.0063 21.9437 9.28125 19.8312ZM13.875 24.0375V19.4438C14.825 19.4937 15.7688 19.6187 16.6875 19.8188C15.975 21.9188 14.9375 23.4625 13.875 24.0375ZM16.6875 23.6812C17.3375 22.7687 17.9 21.6125 18.3438 20.275C19.1562 20.5375 19.9562 20.8687 20.7188 21.25C19.5562 22.3312 18.1812 23.1625 16.6875 23.6812ZM21.9062 19.9438C20.9062 19.4125 19.8687 18.975 18.8 18.6313C19.15 17.1375 19.3563 15.5437 19.4125 13.875H24.2625C24.0938 16.0938 23.2875 18.1812 21.9062 19.9438Z" fill="#09A507"/>
</svg>
