<svg width="22" height="22" viewBox="0 0 22 22" fill="none" xmlns="http://www.w3.org/2000/svg">
<path d="M20.7958 19.2042L16.3436 14.7501C17.6785 13.0106 18.3018 10.8284 18.0869 8.64618C17.872 6.46401 16.8352 4.44527 15.1866 2.99948C13.538 1.55369 11.4013 0.789103 9.20972 0.860827C7.01817 0.932551 4.93595 1.83521 3.38546 3.3857C1.83497 4.9362 0.932307 7.01841 0.860583 9.20996C0.788858 11.4015 1.55344 13.5383 2.99924 15.1868C4.44503 16.8354 6.46377 17.8723 8.64594 18.0871C10.8281 18.302 13.0103 17.6788 14.7499 16.3439L19.2058 20.8007C19.3105 20.9054 19.4347 20.9884 19.5714 21.045C19.7081 21.1017 19.8547 21.1308 20.0027 21.1308C20.1507 21.1308 20.2972 21.1017 20.434 21.045C20.5707 20.9884 20.6949 20.9054 20.7996 20.8007C20.9042 20.6961 20.9872 20.5719 21.0439 20.4351C21.1005 20.2984 21.1296 20.1519 21.1296 20.0039C21.1296 19.8559 21.1005 19.7093 21.0439 19.5726C20.9872 19.4359 20.9042 19.3116 20.7996 19.207L20.7958 19.2042ZM3.12487 9.50012C3.12487 8.23926 3.49876 7.00672 4.19925 5.95836C4.89975 4.90999 5.89539 4.09289 7.06026 3.61038C8.22514 3.12788 9.50694 3.00163 10.7436 3.24761C11.9802 3.49359 13.1161 4.10075 14.0077 4.99231C14.8992 5.88387 15.5064 7.01979 15.7524 8.25642C15.9984 9.49304 15.8721 10.7748 15.3896 11.9397C14.9071 13.1046 14.09 14.1002 13.0416 14.8007C11.9933 15.5012 10.7607 15.8751 9.49987 15.8751C7.80965 15.8734 6.18915 15.2012 4.99398 14.006C3.79882 12.8108 3.12661 11.1903 3.12487 9.50012Z" fill="#323232"/>
</svg>
