<svg width="32" height="32" viewBox="0 0 32 32" fill="none" xmlns="http://www.w3.org/2000/svg">
<path d="M11.5802 2L3.59661 10.9091H7.98794L12.8821 2H11.5802Z" fill="white"/>
<path d="M13.178 2L8.28523 10.9091H12.986L14.7274 2H13.178Z" fill="white"/>
<path d="M14.9935 2L13.2508 10.9091H19.501L17.7596 2H14.9935Z" fill="white"/>
<path d="M18.0239 2L19.7666 10.9091H24.4515L19.5594 2H18.0239Z" fill="white"/>
<path d="M21.1707 2H19.855L24.7471 10.9091H29.1543L21.1707 2Z" fill="white"/>
<path d="M3.59658 13.2248C3.59658 14.4307 4.56986 15.408 5.7708 15.408C6.97173 15.408 7.94501 14.4307 7.94501 13.2248V11.241H3.59724L3.59658 13.2248Z" fill="white"/>
<path d="M13.2508 12.27C13.2508 14.0026 14.6497 15.408 16.3759 15.408C18.1014 15.408 19.501 14.0033 19.501 12.27V11.2417H13.2508V12.27Z" fill="white"/>
<path d="M19.7726 13.0585C19.7726 14.3558 20.8205 15.408 22.1124 15.408C23.4044 15.408 24.4523 14.3558 24.4523 13.0585V11.2417H19.7726V13.0585Z" fill="white"/>
<path d="M8.28523 13.0585C8.28523 14.3558 9.33307 15.408 10.6251 15.408C11.9171 15.408 12.9649 14.3558 12.9649 13.0585V11.2417H8.28523V13.0585Z" fill="white"/>
<path d="M24.8064 11.2417V13.2254C24.8064 14.4313 25.7797 15.4086 26.9807 15.4086C28.1816 15.4086 29.1549 14.4313 29.1549 13.2254V11.2417H24.8064Z" fill="white"/>
<path d="M9.40783 25.0531C9.43356 25.1168 10.1277 26.8123 12.3693 28.7437C12.8476 29.1565 13.3973 29.5792 14.0248 29.9993C14.0248 29.9993 13.3617 29.9695 12.3693 29.7588C9.14191 29.0724 2.43186 26.4631 3.73573 16.6795C3.73573 16.6795 5.65722 19.3251 9.77933 21.0671C10.7421 21.4746 11.6078 21.9576 12.3693 22.5115C14.8694 24.327 16.2419 26.8978 16.1938 29.9986C16.1938 29.9986 14.6946 29.7853 12.3693 27.936C11.4883 27.2357 10.4893 26.2995 9.40783 25.0518V25.0531Z" fill="white"/>
<path d="M20.381 29.7549C19.3781 29.9702 18.7057 30 18.7057 30C19.3424 29.574 19.898 29.1446 20.381 28.7265C22.6067 26.8017 23.2976 25.1168 23.3227 25.0532C22.2491 26.2916 21.2567 27.2231 20.381 27.9208C18.0451 29.7853 16.5367 29.9994 16.5367 29.9994C16.4892 26.8899 17.869 24.3137 20.381 22.497C21.1385 21.9497 21.9977 21.4713 22.9518 21.0678C27.0739 19.3245 28.9954 16.6802 28.9954 16.6802C30.296 26.4439 23.6156 29.0631 20.381 29.7549Z" fill="white"/>
</svg>
