<svg width="32" height="32" viewBox="0 0 32 32" fill="none" xmlns="http://www.w3.org/2000/svg">
<path d="M11.5802 2L3.59668 10.9091H7.98801L12.8821 2H11.5802Z" fill="url(#paint0_linear_89_2179)"/>
<path d="M13.178 2L8.28516 10.9091H12.9859L14.7273 2H13.178Z" fill="url(#paint1_linear_89_2179)"/>
<path d="M14.9937 2L13.251 10.9091H19.5011L17.7597 2H14.9937Z" fill="url(#paint2_linear_89_2179)"/>
<path d="M18.0239 2L19.7666 10.9091H24.4516L19.5594 2H18.0239Z" fill="url(#paint3_linear_89_2179)"/>
<path d="M21.1707 2H19.855L24.7471 10.9091H29.1543L21.1707 2Z" fill="url(#paint4_linear_89_2179)"/>
<path d="M3.59668 13.2249C3.59668 14.4308 4.56997 15.4081 5.7709 15.4081C6.97183 15.4081 7.94511 14.4308 7.94511 13.2249V11.2411H3.59734V13.2249H3.59668Z" fill="url(#paint5_linear_89_2179)"/>
<path d="M13.251 12.27C13.251 14.0027 14.6499 15.408 16.376 15.408C18.1016 15.408 19.5011 14.0033 19.5011 12.27V11.2417H13.251V12.27Z" fill="url(#paint6_linear_89_2179)"/>
<path d="M19.7725 13.0585C19.7725 14.3558 20.8203 15.408 22.1123 15.408C23.4043 15.408 24.4521 14.3558 24.4521 13.0585V11.2417H19.7725V13.0585Z" fill="url(#paint7_linear_89_2179)"/>
<path d="M8.28516 13.0585C8.28516 14.3558 9.333 15.408 10.625 15.408C11.917 15.408 12.9648 14.3558 12.9648 13.0585V11.2417H8.28516V13.0585Z" fill="url(#paint8_linear_89_2179)"/>
<path d="M24.8066 11.2417V13.2255C24.8066 14.4314 25.7799 15.4087 26.9809 15.4087C28.1818 15.4087 29.1551 14.4314 29.1551 13.2255V11.2417H24.8073H24.8066Z" fill="url(#paint9_linear_89_2179)"/>
<path d="M9.40783 25.0531C9.43356 25.1167 10.1277 26.8123 12.3693 28.7437C12.8476 29.1565 13.3973 29.5792 14.0248 29.9993C14.0248 29.9993 13.3617 29.9695 12.3693 29.7588C9.14191 29.0724 2.43186 26.4631 3.73573 16.6794C3.73573 16.6794 5.65722 19.3251 9.77933 21.0671C10.7421 21.4745 11.6078 21.9576 12.3693 22.5115C14.8694 24.3269 16.2419 26.8978 16.1938 29.9986C16.1938 29.9986 14.6946 29.7853 12.3693 27.936C11.4883 27.2357 10.4893 26.2995 9.40783 25.0518V25.0531Z" fill="url(#paint10_linear_89_2179)"/>
<path d="M20.3811 29.7549C19.3782 29.9702 18.7058 30 18.7058 30C19.3425 29.574 19.8981 29.1446 20.3811 28.7266C22.6068 26.8018 23.2977 25.1168 23.3228 25.0532C22.2492 26.2916 21.2568 27.2232 20.3811 27.9209C18.0452 29.7854 16.5368 29.9994 16.5368 29.9994C16.4893 26.8899 17.8691 24.3138 20.3811 22.497C21.1386 21.9497 21.9978 21.4713 22.9519 21.0678C27.074 19.3245 28.9955 16.6802 28.9955 16.6802C30.2961 26.444 23.6157 29.0631 20.3811 29.7549Z" fill="url(#paint11_linear_89_2179)"/>
<defs>
<linearGradient id="paint0_linear_89_2179" x1="24.2019" y1="-3.14759" x2="2.70339" y2="11.0527" gradientUnits="userSpaceOnUse">
<stop stop-color="#BAE515"/>
<stop offset="1" stop-color="#378F07"/>
</linearGradient>
<linearGradient id="paint1_linear_89_2179" x1="25.2097" y1="-1.62233" x2="3.71054" y2="12.5779" gradientUnits="userSpaceOnUse">
<stop stop-color="#BAE515"/>
<stop offset="1" stop-color="#378F07"/>
</linearGradient>
<linearGradient id="paint2_linear_89_2179" x1="26.4823" y1="0.303793" x2="4.98382" y2="14.504" gradientUnits="userSpaceOnUse">
<stop stop-color="#BAE515"/>
<stop offset="1" stop-color="#378F07"/>
</linearGradient>
<linearGradient id="paint3_linear_89_2179" x1="27.7013" y1="2.14974" x2="6.20214" y2="16.35" gradientUnits="userSpaceOnUse">
<stop stop-color="#BAE515"/>
<stop offset="1" stop-color="#378F07"/>
</linearGradient>
<linearGradient id="paint4_linear_89_2179" x1="28.699" y1="3.66109" x2="7.20047" y2="17.8607" gradientUnits="userSpaceOnUse">
<stop stop-color="#BAE515"/>
<stop offset="1" stop-color="#378F07"/>
</linearGradient>
<linearGradient id="paint5_linear_89_2179" x1="25.8951" y1="-0.583328" x2="4.39657" y2="13.6169" gradientUnits="userSpaceOnUse">
<stop stop-color="#BAE515"/>
<stop offset="1" stop-color="#378F07"/>
</linearGradient>
<linearGradient id="paint6_linear_89_2179" x1="29.0347" y1="4.16799" x2="7.53548" y2="18.3675" gradientUnits="userSpaceOnUse">
<stop stop-color="#BAE515"/>
<stop offset="1" stop-color="#378F07"/>
</linearGradient>
<linearGradient id="paint7_linear_89_2179" x1="30.8699" y1="6.94818" x2="9.37135" y2="21.1478" gradientUnits="userSpaceOnUse">
<stop stop-color="#BAE515"/>
<stop offset="1" stop-color="#378F07"/>
</linearGradient>
<linearGradient id="paint8_linear_89_2179" x1="27.3609" y1="1.63494" x2="5.86233" y2="15.8352" gradientUnits="userSpaceOnUse">
<stop stop-color="#BAE515"/>
<stop offset="1" stop-color="#378F07"/>
</linearGradient>
<linearGradient id="paint9_linear_89_2179" x1="32.3752" y1="9.22679" x2="10.8766" y2="23.4264" gradientUnits="userSpaceOnUse">
<stop stop-color="#BAE515"/>
<stop offset="1" stop-color="#378F07"/>
</linearGradient>
<linearGradient id="paint10_linear_89_2179" x1="-5.67509" y1="37.0485" x2="21.8263" y2="13.1417" gradientUnits="userSpaceOnUse">
<stop stop-color="#BAE515"/>
<stop offset="1" stop-color="#378F07"/>
</linearGradient>
<linearGradient id="paint11_linear_89_2179" x1="0.723454" y1="44.4092" x2="28.2249" y2="20.5024" gradientUnits="userSpaceOnUse">
<stop stop-color="#BAE515"/>
<stop offset="1" stop-color="#378F07"/>
</linearGradient>
</defs>
</svg>
