<svg width="32" height="32" viewBox="0 0 32 32" fill="none" xmlns="http://www.w3.org/2000/svg">
<path d="M10.3436 11.2993L11.5875 10.5018L12.7842 7.9444L12.3235 7.13337L12.1126 6.8324L12.5727 7.64402L11.3654 10.2085L10.1145 11.0106L7.5635 10.8687L7.80034 11.1502L10.3436 11.2993Z" fill="#181818"/>
<path d="M7.90076 16.4387L9.19544 15.6147L10.4978 12.8311L10.0542 11.907L9.82211 11.6208L10.2645 12.5455L8.94914 15.3379L7.64738 16.1671L5.05683 15.875L5.3179 16.14L7.90076 16.4387Z" fill="#181818"/>
<path d="M7.58567 17.1031L7.32874 16.8339L7.74809 17.8899L6.30989 20.9438L4.9526 21.8008L2.32544 21.3308L2.61426 21.5758L5.23493 22.0499L6.58394 21.1989L8.00679 18.1567L7.58567 17.1031Z" fill="#181818"/>
<path d="M12.6411 11.4341L15.4602 11.599L16.7803 10.7591L17.9196 8.0616L17.7265 7.74532L16.5765 10.4517L15.2488 11.2969L12.4196 11.139L12.6411 11.4341Z" fill="#181818"/>
<path d="M12.8816 16.7579L9.99453 16.4322L10.2408 16.7084L13.1172 17.0412L14.494 16.1719L15.7403 13.2223L15.1839 12.2416L14.9695 11.9412L15.5259 12.9225L14.2666 15.8833L12.8816 16.7579Z" fill="#181818"/>
<path d="M12.8134 17.7463L12.5748 17.4659L13.1134 18.595L11.7302 21.8485L10.2825 22.7544L7.33876 22.2278L7.61341 22.4805L10.5465 23.0124L11.9853 22.1124L13.3532 18.873L12.8134 17.7463Z" fill="#181818"/>
<path d="M18.015 11.7486L21.1584 11.9329L22.5629 11.0459L23.6249 8.19169L23.4566 7.85833L22.384 10.722L20.9706 11.6149L17.8136 11.4393L18.015 11.7486Z" fill="#181818"/>
<path d="M18.9545 17.7144L20.4246 16.7956L21.5917 13.6581L21.4015 13.3435L20.222 16.4934L18.7431 17.4193L15.5052 17.0541L15.7302 17.3427L18.9545 17.7144Z" fill="#181818"/>
<path d="M18.6677 18.4666L18.4527 18.1744L19.1384 19.386L17.8349 22.8669L16.2839 23.8281L12.9639 23.2344L13.2173 23.4959L16.5231 24.0943L18.0641 23.1402L19.3523 19.6758L18.6677 18.4666Z" fill="#181818"/>
<path d="M29.8629 7.98506L28.8954 11.026L27.384 11.9725L23.8396 11.7752L23.0995 10.7556L23.2755 11.0813L24.0144 12.1003L27.5411 12.307L29.0431 11.367L29.9999 8.33727L29.8629 7.98506Z" fill="#181818"/>
<path d="M26.938 17.1814L25.3509 18.1656L21.6943 17.7527L21.8921 18.0542L25.5305 18.4742L27.1063 17.4977L28.1647 14.1481L28.0076 13.8177L26.938 17.1814Z" fill="#181818"/>
<path d="M24.763 24.0231L23.0926 25.0461L19.3196 24.3711L19.5447 24.6421L23.2982 25.3218L24.9567 24.3064L26.1327 20.5828L25.9531 20.2807L24.763 24.0231Z" fill="#181818"/>
<path d="M10.1145 11.0106L11.3655 10.2084L12.5728 7.64397L12.1127 6.83235L9.59892 6.80408L8.42827 7.56151L7.1838 10.0135L7.56358 10.8687L10.1145 11.0106Z" fill="white"/>
<path d="M7.64802 16.1672L8.94979 15.3379L10.2651 12.5455L9.82275 11.6208L7.26706 11.4612L6.05211 12.2428L4.70191 14.9032L5.05748 15.875L7.64802 16.1672Z" fill="white"/>
<path d="M7.32874 16.8339L4.73289 16.5217L3.4701 17.3286L2 20.2247L2.32544 21.3308L4.9526 21.8008L6.30989 20.9438L7.7481 17.8899L7.32874 16.8339Z" fill="white"/>
<path d="M12.42 11.139L15.2492 11.2969L16.577 10.4517L17.7269 7.74529L17.1593 6.89068L14.381 6.85887L13.1436 7.65518L11.9416 10.2355L12.42 11.139Z" fill="white"/>
<path d="M12.1327 11.7645L10.8457 12.5868L9.53622 15.3986L9.99456 16.4322L12.8816 16.7579L14.2666 15.8833L15.5259 12.9225L14.9695 11.9412L12.1327 11.7645Z" fill="white"/>
<path d="M12.5749 17.4659L9.68015 17.1178L8.33881 17.9677L6.90651 21.0434L7.33886 22.2278L10.2826 22.7544L11.7303 21.8485L13.1135 18.595L12.5749 17.4659Z" fill="white"/>
<path d="M17.8134 11.4394L20.9704 11.6149L22.3838 10.722L23.4564 7.85838L22.7582 6.95488L19.6715 6.91954L18.3591 7.75767L17.2169 10.4811L17.8134 11.4394Z" fill="white"/>
<path d="M18.7427 17.4193L20.2216 16.4935L21.4011 13.3436L20.7071 12.2987L17.5407 12.1014L16.1722 12.969L14.9212 15.9504L15.5048 17.0542L18.7427 17.4193Z" fill="white"/>
<path d="M18.4529 18.1744L15.205 17.7827L13.7757 18.6821L12.4001 21.9598L12.9641 23.2344L16.2841 23.8281L17.8351 22.8668L19.1387 19.386L18.4529 18.1744Z" fill="white"/>
<path d="M29.0074 7.02672L25.5574 6.98726L24.1612 7.8725L23.0992 10.7556L23.8393 11.7751L27.3837 11.9724L28.8951 11.0259L29.8626 7.985L29.0074 7.02672Z" fill="white"/>
<path d="M23.5872 12.4784L22.1271 13.396L20.9583 16.5688L21.6942 17.7527L25.3508 18.1656L26.9379 17.1814L28.0075 13.8177L27.1452 12.6998L23.5872 12.4784Z" fill="white"/>
<path d="M21.4148 18.5313L19.8845 19.4843L18.5922 22.9929L19.3192 24.3711L23.0922 25.0461L24.7626 24.023L25.9527 20.2806L25.0856 18.9737L21.4148 18.5313Z" fill="white"/>
</svg>
