<svg width="32" height="32" viewBox="0 0 32 32" fill="none" xmlns="http://www.w3.org/2000/svg">
<path d="M10.3436 11.2993L11.5875 10.5018L12.7841 7.9444L12.3234 7.13337L12.1126 6.8324L12.5727 7.64402L11.3654 10.2085L10.1144 11.0106L7.56348 10.8687L7.80032 11.1502L10.3436 11.2993Z" fill="url(#paint0_linear_89_2138)"/>
<path d="M7.90105 16.4386L9.19574 15.6146L10.4981 12.8311L10.0545 11.907L9.8224 11.6207L10.2648 12.5454L8.94944 15.3378L7.64767 16.1671L5.05713 15.875L5.31819 16.14L7.90105 16.4386Z" fill="url(#paint1_linear_89_2138)"/>
<path d="M7.58591 17.103L7.32898 16.8339L7.74834 17.8899L6.31013 20.9438L4.95284 21.8008L2.32568 21.3308L2.61451 21.5758L5.23517 22.0499L6.58419 21.1988L8.00704 18.1567L7.58591 17.103Z" fill="url(#paint2_linear_89_2138)"/>
<path d="M12.6409 11.4342L15.46 11.5991L16.7801 10.7592L17.9195 8.06165L17.7263 7.74536L16.5763 10.4517L15.2486 11.2969L12.4194 11.1391L12.6409 11.4342Z" fill="url(#paint3_linear_89_2138)"/>
<path d="M12.8817 16.7579L9.99463 16.4322L10.2409 16.7084L13.1173 17.0412L14.4941 16.1718L15.7404 13.2222L15.184 12.2415L14.9696 11.9412L15.526 12.9224L14.2667 15.8832L12.8817 16.7579Z" fill="url(#paint4_linear_89_2138)"/>
<path d="M12.8135 17.7463L12.5749 17.4659L13.1135 18.595L11.7303 21.8486L10.2826 22.7544L7.33887 22.2279L7.61351 22.4806L10.5466 23.0124L11.9854 22.1124L13.3533 18.873L12.8135 17.7463Z" fill="url(#paint5_linear_89_2138)"/>
<path d="M18.0149 11.7485L21.1583 11.9329L22.5628 11.0459L23.6248 8.19164L23.4564 7.85828L22.3838 10.7219L20.9704 11.6148L17.8135 11.4393L18.0149 11.7485Z" fill="url(#paint6_linear_89_2138)"/>
<path d="M18.9547 17.7144L20.4248 16.7955L21.5919 13.658L21.4017 13.3435L20.2222 16.4934L18.7433 17.4193L15.5054 17.0541L15.7304 17.3427L18.9547 17.7144Z" fill="url(#paint7_linear_89_2138)"/>
<path d="M18.6677 18.4666L18.4527 18.1744L19.1384 19.386L17.8349 22.8669L16.2838 23.8281L12.9639 23.2344L13.2173 23.4959L16.5231 24.0943L18.064 23.1402L19.3522 19.6758L18.6677 18.4666Z" fill="url(#paint8_linear_89_2138)"/>
<path d="M29.863 7.98511L28.8955 11.026L27.3841 11.9725L23.8397 11.7752L23.0996 10.7557L23.2756 11.0814L24.0145 12.1003L27.5412 12.3071L29.0432 11.3671L30 8.33732L29.863 7.98511Z" fill="url(#paint9_linear_89_2138)"/>
<path d="M26.938 17.1814L25.351 18.1656L21.6943 17.7528L21.8922 18.0543L25.5305 18.4743L27.1064 17.4977L28.1648 14.1482L28.0077 13.8177L26.938 17.1814Z" fill="url(#paint10_linear_89_2138)"/>
<path d="M24.7632 24.023L23.0928 25.0461L19.3198 24.3711L19.5449 24.6421L23.2984 25.3218L24.9569 24.3063L26.1328 20.5828L25.9533 20.2806L24.7632 24.023Z" fill="url(#paint11_linear_89_2138)"/>
<path d="M10.1143 11.0106L11.3653 10.2084L12.5726 7.64397L12.1125 6.83235L9.59871 6.80408L8.42807 7.56151L7.18359 10.0135L7.56337 10.8687L10.1143 11.0106Z" fill="url(#paint12_linear_89_2138)"/>
<path d="M7.64777 16.1672L8.94953 15.3379L10.2649 12.5455L9.8225 11.6208L7.2668 11.4612L6.05186 12.2428L4.70166 14.9032L5.05722 15.875L7.64777 16.1672Z" fill="url(#paint13_linear_89_2138)"/>
<path d="M7.32874 16.8339L4.73289 16.5217L3.4701 17.3286L2 20.2247L2.32544 21.3308L4.9526 21.8008L6.30989 20.9438L7.7481 17.8899L7.32874 16.8339Z" fill="url(#paint14_linear_89_2138)"/>
<path d="M12.4198 11.139L15.249 11.2969L16.5767 10.4517L17.7267 7.74531L17.1591 6.89069L14.3807 6.85889L13.1434 7.65519L11.9414 10.2355L12.4198 11.139Z" fill="url(#paint15_linear_89_2138)"/>
<path d="M12.1326 11.7645L10.8456 12.5867L9.53613 15.3986L9.99447 16.4322L12.8815 16.7579L14.2666 15.8833L15.5258 12.9225L14.9694 11.9412L12.1326 11.7645Z" fill="url(#paint16_linear_89_2138)"/>
<path d="M12.5746 17.4659L9.67989 17.1178L8.33855 17.9677L6.90625 21.0434L7.3386 22.2278L10.2823 22.7544L11.73 21.8485L13.1133 18.595L12.5746 17.4659Z" fill="url(#paint17_linear_89_2138)"/>
<path d="M17.8133 11.4394L20.9703 11.6149L22.3837 10.722L23.4563 7.8584L22.7582 6.95489L19.6715 6.91956L18.3591 7.75768L17.2168 10.4811L17.8133 11.4394Z" fill="url(#paint18_linear_89_2138)"/>
<path d="M18.7428 17.4194L20.2218 16.4935L21.4013 13.3436L20.7073 12.2987L17.5409 12.1014L16.1724 12.969L14.9214 15.9504L15.5049 17.0542L18.7428 17.4194Z" fill="url(#paint19_linear_89_2138)"/>
<path d="M18.4528 18.1744L15.2048 17.7827L13.7755 18.6821L12.3999 21.9598L12.964 23.2343L16.2839 23.828L17.835 22.8668L19.1385 19.3859L18.4528 18.1744Z" fill="url(#paint20_linear_89_2138)"/>
<path d="M29.0073 7.02677L25.5574 6.9873L24.1611 7.87255L23.0991 10.7556L23.8392 11.7752L27.3836 11.9725L28.8951 11.026L29.8625 7.98504L29.0073 7.02677Z" fill="url(#paint21_linear_89_2138)"/>
<path d="M23.5869 12.4784L22.1269 13.396L20.958 16.5689L21.6939 17.7527L25.3506 18.1656L26.9376 17.1814L28.0073 13.8177L27.1449 12.6999L23.5869 12.4784Z" fill="url(#paint22_linear_89_2138)"/>
<path d="M21.4149 18.5314L19.8846 19.4843L18.5923 22.9929L19.3194 24.3711L23.0924 25.0461L24.7627 24.0231L25.9528 20.2807L25.0858 18.9737L21.4149 18.5314Z" fill="url(#paint23_linear_89_2138)"/>
<path opacity="0.5" d="M20.1678 11.5708L20.3799 11.5825L22.1813 6.94842L21.9657 6.94606L20.1678 11.5708ZM24.2243 12.5184L24.0158 12.5049L22.2026 17.8099L22.4081 17.8334L24.2249 12.5184H24.2243ZM26.1126 6.99377L25.9006 6.99142L24.2574 11.7987L24.4665 11.8105L26.1132 6.99377H26.1126ZM15.0375 6.86714L14.8184 6.8642L12.9142 11.1673L13.1292 11.1791L15.0375 6.86655V6.86714ZM14.6595 11.2651L16.4976 6.88363L16.2802 6.88128L14.4457 11.2527L14.6595 11.2645V11.2651ZM9.53515 10.9794L11.4754 6.82591L11.2539 6.82356L9.3178 10.9671L9.53456 10.9788L9.53515 10.9794ZM20.5323 6.93016L20.3167 6.92722L18.5365 11.4801L18.7485 11.4918L20.5323 6.92957V6.93016ZM9.03606 11.5719L6.92689 16.0865L7.13834 16.1107L9.25224 11.5861L9.03606 11.5725V11.5719ZM10.7666 16.52L12.851 11.8099L12.636 11.7963L10.5564 16.4958L10.7666 16.52ZM16.5295 17.1702L18.4881 12.1609L18.2766 12.148L16.3222 17.1473L16.5295 17.1702ZM14.1782 11.8929L12.17 16.6784L12.3785 16.702L14.3908 11.9059L14.1776 11.8929H14.1782ZM19.905 12.2493L17.9305 17.3287L18.1378 17.3522L20.1164 12.2628L19.9056 12.2499L19.905 12.2493ZM16.0345 17.8835L13.8781 23.3982L14.0807 23.4347L16.2413 17.9088L16.0345 17.8841V17.8835ZM22.3875 24.9207L22.5877 24.9566L24.5226 18.9066L24.3188 18.8818L22.3875 24.9207ZM15.461 23.6815L15.663 23.7174L17.846 18.102L17.6393 18.0767L15.461 23.6809V23.6815ZM19.9239 24.4801L20.1247 24.516L22.14 18.6191L21.935 18.5944L19.9233 24.4795L19.9239 24.4801ZM24.5758 18.079L24.7801 18.102L26.5196 12.6622L26.3117 12.6492L24.5752 18.0796L24.5758 18.079ZM9.95982 6.80765L9.73715 6.8053L7.77623 10.8805L7.99418 10.8928L9.95982 6.80824V6.80765ZM28.1125 7.01615L26.5426 11.9253L26.7505 11.9371L28.3234 7.01851L28.1125 7.01615ZM7.70713 11.4889L7.48977 11.4754L5.35639 15.9086L5.56842 15.9328L7.70713 11.4889ZM5.04335 16.5589L2.71387 21.4003L2.92 21.4368L5.25539 16.5842L5.04394 16.5589H5.04335ZM10.2504 17.1861L7.96996 22.3403L8.17432 22.3769L10.4601 17.2109L10.2504 17.1855V17.1861ZM4.32277 21.6577L4.42731 21.7066L4.51532 21.7219L6.82767 16.7738L6.6174 16.7485L4.32336 21.6583L4.32277 21.6577ZM9.66569 22.6437L9.86887 22.6796L12.0814 17.4064L11.8735 17.3811L9.66569 22.6437Z" fill="white"/>
<defs>
<linearGradient id="paint0_linear_89_2138" x1="30.7224" y1="18.0514" x2="29.2761" y2="17.4164" gradientUnits="userSpaceOnUse">
<stop stop-color="#BAE515"/>
<stop offset="1" stop-color="#378F07"/>
</linearGradient>
<linearGradient id="paint1_linear_89_2138" x1="28.5386" y1="23.0282" x2="27.0922" y2="22.3938" gradientUnits="userSpaceOnUse">
<stop stop-color="#BAE515"/>
<stop offset="1" stop-color="#378F07"/>
</linearGradient>
<linearGradient id="paint2_linear_89_2138" x1="26.1609" y1="28.4492" x2="24.7146" y2="27.8143" gradientUnits="userSpaceOnUse">
<stop stop-color="#BAE515"/>
<stop offset="1" stop-color="#378F07"/>
</linearGradient>
<linearGradient id="paint3_linear_89_2138" x1="31.3417" y1="16.639" x2="29.8954" y2="16.0046" gradientUnits="userSpaceOnUse">
<stop stop-color="#BAE515"/>
<stop offset="1" stop-color="#378F07"/>
</linearGradient>
<linearGradient id="paint4_linear_89_2138" x1="29.1845" y1="21.5581" x2="27.7375" y2="20.9231" gradientUnits="userSpaceOnUse">
<stop stop-color="#BAE515"/>
<stop offset="1" stop-color="#378F07"/>
</linearGradient>
<linearGradient id="paint5_linear_89_2138" x1="26.7006" y1="27.2183" x2="25.2542" y2="26.584" gradientUnits="userSpaceOnUse">
<stop stop-color="#BAE515"/>
<stop offset="1" stop-color="#378F07"/>
</linearGradient>
<linearGradient id="paint6_linear_89_2138" x1="32.1554" y1="14.7859" x2="30.709" y2="14.1509" gradientUnits="userSpaceOnUse">
<stop stop-color="#BAE515"/>
<stop offset="1" stop-color="#378F07"/>
</linearGradient>
<linearGradient id="paint7_linear_89_2138" x1="29.7669" y1="20.2299" x2="28.3206" y2="19.5949" gradientUnits="userSpaceOnUse">
<stop stop-color="#BAE515"/>
<stop offset="1" stop-color="#378F07"/>
</linearGradient>
<linearGradient id="paint8_linear_89_2138" x1="27.3052" y1="25.8395" x2="25.8588" y2="25.2051" gradientUnits="userSpaceOnUse">
<stop stop-color="#BAE515"/>
<stop offset="1" stop-color="#378F07"/>
</linearGradient>
<linearGradient id="paint9_linear_89_2138" x1="33.0637" y1="12.7152" x2="31.6173" y2="12.0803" gradientUnits="userSpaceOnUse">
<stop stop-color="#BAE515"/>
<stop offset="1" stop-color="#378F07"/>
</linearGradient>
<linearGradient id="paint10_linear_89_2138" x1="30.574" y1="18.3894" x2="29.1276" y2="17.7551" gradientUnits="userSpaceOnUse">
<stop stop-color="#BAE515"/>
<stop offset="1" stop-color="#378F07"/>
</linearGradient>
<linearGradient id="paint11_linear_89_2138" x1="27.8179" y1="24.6727" x2="26.3716" y2="24.0383" gradientUnits="userSpaceOnUse">
<stop stop-color="#BAE515"/>
<stop offset="1" stop-color="#378F07"/>
</linearGradient>
<linearGradient id="paint12_linear_89_2138" x1="7.18359" y1="8.90734" x2="12.5726" y2="8.90734" gradientUnits="userSpaceOnUse">
<stop stop-color="#BAE515"/>
<stop offset="1" stop-color="#378F07"/>
</linearGradient>
<linearGradient id="paint13_linear_89_2138" x1="4.70166" y1="13.8142" x2="10.2649" y2="13.8142" gradientUnits="userSpaceOnUse">
<stop stop-color="#BAE515"/>
<stop offset="1" stop-color="#378F07"/>
</linearGradient>
<linearGradient id="paint14_linear_89_2138" x1="2" y1="19.161" x2="7.7481" y2="19.161" gradientUnits="userSpaceOnUse">
<stop stop-color="#BAE515"/>
<stop offset="1" stop-color="#378F07"/>
</linearGradient>
<linearGradient id="paint15_linear_89_2138" x1="11.9414" y1="9.07759" x2="17.7267" y2="9.07759" gradientUnits="userSpaceOnUse">
<stop stop-color="#BAE515"/>
<stop offset="1" stop-color="#378F07"/>
</linearGradient>
<linearGradient id="paint16_linear_89_2138" x1="9.53613" y1="14.2612" x2="15.5258" y2="14.2612" gradientUnits="userSpaceOnUse">
<stop stop-color="#BAE515"/>
<stop offset="1" stop-color="#378F07"/>
</linearGradient>
<linearGradient id="paint17_linear_89_2138" x1="6.90625" y1="19.9361" x2="13.1133" y2="19.9361" gradientUnits="userSpaceOnUse">
<stop stop-color="#BAE515"/>
<stop offset="1" stop-color="#378F07"/>
</linearGradient>
<linearGradient id="paint18_linear_89_2138" x1="17.2168" y1="9.26725" x2="23.4563" y2="9.26725" gradientUnits="userSpaceOnUse">
<stop stop-color="#BAE515"/>
<stop offset="1" stop-color="#378F07"/>
</linearGradient>
<linearGradient id="paint19_linear_89_2138" x1="14.9214" y1="14.7607" x2="21.4013" y2="14.7607" gradientUnits="userSpaceOnUse">
<stop stop-color="#BAE515"/>
<stop offset="1" stop-color="#378F07"/>
</linearGradient>
<linearGradient id="paint20_linear_89_2138" x1="12.3999" y1="20.8054" x2="19.1385" y2="20.8054" gradientUnits="userSpaceOnUse">
<stop stop-color="#BAE515"/>
<stop offset="1" stop-color="#378F07"/>
</linearGradient>
<linearGradient id="paint21_linear_89_2138" x1="23.0991" y1="9.47988" x2="29.8625" y2="9.47988" gradientUnits="userSpaceOnUse">
<stop stop-color="#BAE515"/>
<stop offset="1" stop-color="#378F07"/>
</linearGradient>
<linearGradient id="paint22_linear_89_2138" x1="20.958" y1="15.322" x2="28.0073" y2="15.322" gradientUnits="userSpaceOnUse">
<stop stop-color="#BAE515"/>
<stop offset="1" stop-color="#378F07"/>
</linearGradient>
<linearGradient id="paint23_linear_89_2138" x1="18.5923" y1="21.7885" x2="25.9528" y2="21.7885" gradientUnits="userSpaceOnUse">
<stop stop-color="#BAE515"/>
<stop offset="1" stop-color="#378F07"/>
</linearGradient>
</defs>
</svg>
