<svg width="22" height="21" viewBox="0 0 22 21" fill="none" xmlns="http://www.w3.org/2000/svg">
<path d="M7.21312 20.5011L5.78689 17.988L3.08197 17.3726C2.83607 17.3213 2.63934 17.1886 2.4918 16.9746C2.34426 16.7605 2.28689 16.5256 2.31967 16.2699L2.59016 13.3721L0.745902 11.1667C0.581967 10.9787 0.5 10.7564 0.5 10.5C0.5 10.2436 0.581967 10.0213 0.745902 9.83326L2.59016 7.62789L2.31967 4.73013C2.28689 4.47369 2.34426 4.23845 2.4918 4.02441C2.63934 3.81037 2.83607 3.67805 3.08197 3.62744L5.78689 3.01199L7.21312 0.498894C7.34426 0.276647 7.52459 0.126887 7.7541 0.0496131C7.98361 -0.0276604 8.21312 -0.0146675 8.44262 0.0885918L11 1.21692L13.5574 0.0885918C13.7869 -0.0139837 14.0164 -0.0269766 14.2459 0.0496131C14.4754 0.126203 14.6557 0.275963 14.7869 0.498894L16.2131 3.01199L18.918 3.62744C19.1639 3.67873 19.3607 3.8114 19.5082 4.02544C19.6557 4.23948 19.7131 4.47438 19.6803 4.73013L19.4098 7.62789L21.2541 9.83326C21.418 10.0213 21.5 10.2436 21.5 10.5C21.5 10.7564 21.418 10.9787 21.2541 11.1667L19.4098 13.3721L19.6803 16.2699C19.7131 16.5263 19.6557 16.7615 19.5082 16.9756C19.3607 17.1896 19.1639 17.322 18.918 17.3726L16.2131 17.988L14.7869 20.5011C14.6557 20.7234 14.4754 20.8731 14.2459 20.9504C14.0164 21.0277 13.7869 21.0147 13.5574 20.9114L11 19.7831L8.44262 20.9114C8.21312 21.014 7.98361 21.027 7.7541 20.9504C7.52459 20.8738 7.34426 20.724 7.21312 20.5011ZM9.96721 11.218L8.54099 9.75633C8.36066 9.56827 8.13508 9.47425 7.86426 9.47425C7.59344 9.47425 7.36 9.57682 7.16394 9.78197C6.98361 9.97003 6.89344 10.2094 6.89344 10.5C6.89344 10.7906 6.98361 11.03 7.16394 11.218L9.27869 13.4234C9.47541 13.6286 9.70492 13.7311 9.96721 13.7311C10.2295 13.7311 10.459 13.6286 10.6557 13.4234L14.8361 9.06394C15.0328 8.85879 15.1269 8.61945 15.1184 8.34591C15.1098 8.07238 15.0157 7.83304 14.8361 7.62789C14.6393 7.42274 14.4056 7.31606 14.1348 7.30785C13.8639 7.29964 13.6305 7.39778 13.4344 7.60224L9.96721 11.218Z" fill="url(#paint0_linear_220_622)"/>
<defs>
<linearGradient id="paint0_linear_220_622" x1="3.5" y1="-1.5" x2="23" y2="24" gradientUnits="userSpaceOnUse">
<stop stop-color="#0DB6FF"/>
<stop offset="1" stop-color="#004382"/>
</linearGradient>
</defs>
</svg>
