<svg width="32" height="32" viewBox="0 0 32 32" fill="none" xmlns="http://www.w3.org/2000/svg">
<path d="M15.2032 16.4511H17.1765L19.1169 28.8243L19.9751 30H16.1899H12.4047L13.2622 28.8243L15.2032 16.4511Z" fill="white"/>
<path d="M16.1668 16.4511H17.1765L19.1169 28.8243L19.9751 30H16.1899H16.1668V16.4511Z" fill="white"/>
<path d="M16.1668 16.4511H17.1765L17.8602 21.8546L16.1668 23.5551V16.4511Z" fill="white"/>
<path d="M16.1899 22.1745L14.0307 23.9262L15.2032 16.4511H16.1899V22.1745Z" fill="white"/>
<path d="M4.74518 20.9623L13.9081 18.9685C14.0167 18.945 14.1662 18.856 14.2401 18.7712L16.194 16.5147C15.9805 16.3498 15.7811 16.1619 15.6028 15.9458C15.3265 15.613 15.1194 15.2389 14.9769 14.8425L4.50996 20.4399C4.41142 20.4917 4.3686 20.6195 4.41494 20.7226L4.46069 20.818C4.50644 20.9217 4.63491 20.9865 4.74518 20.9623Z" fill="white"/>
<path d="M26.7894 22.3724C26.8844 22.4319 27.0152 22.406 27.0803 22.3129L27.1419 22.2269C27.207 22.135 27.1982 21.9913 27.1232 21.9065L20.8233 14.9374C20.7476 14.8532 20.5957 14.7678 20.4848 14.7454L17.5602 14.174C17.4704 14.8591 17.1912 15.5187 16.7278 16.0677L26.7894 22.3724Z" fill="white"/>
<path d="M13.7877 11.5288L14.7544 14.3513C15.4143 14.0762 16.1259 14.0103 16.8051 14.1334L17.2134 2.23489C17.2169 2.12121 17.1283 2.02108 17.0163 2.01048L16.9113 2.00106C16.7992 1.98987 16.679 2.06879 16.645 2.17658L13.7825 11.14C13.749 11.2472 13.7508 11.4216 13.7877 11.5288Z" fill="white"/>
<path d="M14.4882 15.0993C14.3785 16.0541 15.0625 16.9152 16.0116 17.0242C16.0784 17.0319 16.1441 17.0354 16.2098 17.0354C17.0791 17.0354 17.8294 16.3793 17.9291 15.4922C18.037 14.5386 17.3542 13.6769 16.4046 13.5685C16.3377 13.5609 16.2714 13.5573 16.2063 13.5573C15.3376 13.5573 14.5885 14.2123 14.4882 15.0993Z" fill="white"/>
<path d="M15.4632 15.2106C15.4157 15.6241 15.7125 15.9975 16.1237 16.0447C16.1524 16.0482 16.1812 16.0494 16.2093 16.0494C16.5859 16.0494 16.9109 15.7655 16.9543 15.3809C17.0012 14.9674 16.705 14.5945 16.2938 14.5474C16.2645 14.5439 16.2357 14.5427 16.2076 14.5427C15.8316 14.5427 15.5066 14.8266 15.4632 15.2106Z" fill="white"/>
</svg>
